<svg width="219" height="138" viewBox="0 0 219 138" fill="none" xmlns="http://www.w3.org/2000/svg">
<path d="M11.3035 110V98.752H19.8795V110H18.7755V99.744H12.4075V110H11.3035ZM22.7023 113.2V101.952H23.7423V102.8L23.6943 103.424H23.7263C23.9716 102.901 24.3396 102.496 24.8303 102.208C25.3316 101.909 25.8969 101.76 26.5263 101.76C27.6036 101.76 28.4569 102.149 29.0863 102.928C29.7156 103.696 30.0303 104.709 30.0303 105.968C30.0303 107.237 29.6943 108.261 29.0223 109.04C28.3503 109.808 27.4863 110.192 26.4303 110.192C25.8649 110.192 25.3476 110.053 24.8783 109.776C24.4089 109.488 24.0409 109.093 23.7743 108.592H23.7423C23.7743 108.784 23.7903 109.019 23.7903 109.296V113.2H22.7023ZM23.7582 106C23.7582 106.864 23.9876 107.616 24.4463 108.256C24.9156 108.896 25.5396 109.216 26.3183 109.216C27.0543 109.216 27.6729 108.928 28.1743 108.352C28.6756 107.765 28.9263 106.976 28.9263 105.984C28.9263 105.013 28.6863 104.235 28.2063 103.648C27.7369 103.051 27.1236 102.752 26.3663 102.752C25.6303 102.752 25.0116 103.024 24.5103 103.568C24.0089 104.112 23.7582 104.923 23.7582 106ZM31.5801 105.936C31.5801 104.752 31.9908 103.76 32.8121 102.96C33.6335 102.16 34.6361 101.76 35.8201 101.76C37.0041 101.76 38.0068 102.16 38.8281 102.96C39.6601 103.76 40.0761 104.752 40.0761 105.936C40.0761 107.141 39.6601 108.155 38.8281 108.976C38.0068 109.787 37.0041 110.192 35.8201 110.192C34.6361 110.192 33.6335 109.787 32.8121 108.976C31.9908 108.155 31.5801 107.141 31.5801 105.936ZM32.7001 105.936C32.7001 106.875 32.9988 107.653 33.5961 108.272C34.2041 108.891 34.9455 109.2 35.8201 109.2C36.6948 109.2 37.4361 108.891 38.0441 108.272C38.6521 107.653 38.9561 106.875 38.9561 105.936C38.9561 105.029 38.6521 104.272 38.0441 103.664C37.4361 103.045 36.6948 102.736 35.8201 102.736C34.9455 102.736 34.2041 103.045 33.5961 103.664C32.9988 104.272 32.7001 105.029 32.7001 105.936ZM42.1085 110V101.952H43.1645V107.232C43.1645 107.968 43.1485 108.368 43.1165 108.432H43.1485C43.1912 108.357 43.4685 107.957 43.9805 107.232L47.9325 101.952H48.9725V110H47.9005V104.704C47.9005 104.565 47.9005 104.405 47.9005 104.224C47.9112 104.043 47.9218 103.888 47.9325 103.76C47.9432 103.621 47.9485 103.547 47.9485 103.536H47.9165C47.9165 103.557 47.8685 103.632 47.7725 103.76C47.6872 103.888 47.5698 104.048 47.4205 104.24C47.2818 104.432 47.1752 104.587 47.1005 104.704L43.1485 110H42.1085ZM50.7456 109.024L51.3216 108.272C51.951 108.933 52.671 109.264 53.4816 109.264C54.015 109.264 54.4683 109.131 54.8416 108.864C55.2256 108.587 55.4176 108.197 55.4176 107.696C55.4176 106.747 54.767 106.272 53.4656 106.272H52.4896V105.408H53.3376C53.903 105.408 54.3403 105.296 54.6496 105.072C54.9696 104.837 55.1296 104.496 55.1296 104.048C55.1296 103.6 54.9803 103.264 54.6816 103.04C54.383 102.805 53.9776 102.688 53.4656 102.688C52.7616 102.688 52.1056 102.928 51.4976 103.408L51.0176 102.64C51.7216 102.053 52.591 101.76 53.6256 101.76C54.4043 101.76 55.0336 101.947 55.5136 102.32C56.0043 102.693 56.2496 103.227 56.2496 103.92C56.2496 104.827 55.839 105.44 55.0176 105.76V105.792C55.4763 105.909 55.8443 106.133 56.1216 106.464C56.399 106.795 56.5376 107.216 56.5376 107.728C56.5376 108.507 56.2443 109.115 55.6576 109.552C55.0816 109.979 54.3776 110.192 53.5456 110.192C52.479 110.192 51.5456 109.803 50.7456 109.024ZM58.5929 110V101.952H61.5049C62.3369 101.952 62.9875 102.133 63.4569 102.496C63.9262 102.848 64.1609 103.349 64.1609 104C64.1609 104.885 63.7555 105.477 62.9449 105.776V105.808C63.4569 105.915 63.8569 106.144 64.1449 106.496C64.4329 106.848 64.5769 107.264 64.5769 107.744C64.5769 108.437 64.3155 108.987 63.7929 109.392C63.2809 109.797 62.5715 110 61.6649 110H58.5929ZM59.6809 105.44H61.3929C61.9262 105.44 62.3315 105.323 62.6089 105.088C62.8969 104.843 63.0409 104.501 63.0409 104.064C63.0409 103.211 62.4702 102.784 61.3289 102.784H59.6809V105.44ZM59.6809 109.152H61.5209C62.1715 109.152 62.6569 109.029 62.9769 108.784C63.2969 108.528 63.4569 108.176 63.4569 107.728C63.4569 107.259 63.2862 106.901 62.9449 106.656C62.6142 106.4 62.1342 106.272 61.5049 106.272H59.6809V109.152ZM66.0958 105.984C66.0958 104.704 66.4744 103.68 67.2318 102.912C67.9998 102.144 68.9491 101.76 70.0798 101.76C71.1464 101.76 71.9731 102.117 72.5598 102.832C73.1464 103.536 73.4398 104.416 73.4398 105.472C73.4398 105.6 73.4291 105.781 73.4078 106.016H67.2318C67.2531 107.008 67.5624 107.787 68.1598 108.352C68.7571 108.917 69.4878 109.2 70.3518 109.2C71.2798 109.2 72.0958 108.88 72.7998 108.24L73.2958 109.072C72.9224 109.413 72.4638 109.685 71.9198 109.888C71.3864 110.091 70.8531 110.192 70.3198 110.192C69.1144 110.192 68.1064 109.797 67.2958 109.008C66.4958 108.219 66.0958 107.211 66.0958 105.984ZM67.2798 105.152H72.3358C72.3038 104.352 72.0744 103.739 71.6478 103.312C71.2211 102.875 70.6878 102.656 70.0477 102.656C69.3544 102.656 68.7518 102.875 68.2398 103.312C67.7278 103.749 67.4078 104.363 67.2798 105.152ZM76.5235 109.072H80.6515V102.88H77.8355V103.36C77.8355 105.845 77.3982 107.749 76.5235 109.072ZM74.3635 109.072H75.3555C76.2942 107.845 76.7635 105.909 76.7635 103.264V101.952H81.7395V109.072H82.8755V111.92H81.8355V110H75.4035V111.92H74.3635V109.072ZM84.002 105.984C84.002 104.704 84.3807 103.68 85.138 102.912C85.906 102.144 86.8553 101.76 87.986 101.76C89.0527 101.76 89.8793 102.117 90.466 102.832C91.0527 103.536 91.346 104.416 91.346 105.472C91.346 105.6 91.3353 105.781 91.314 106.016H85.138C85.1593 107.008 85.4687 107.787 86.066 108.352C86.6633 108.917 87.394 109.2 88.258 109.2C89.186 109.2 90.002 108.88 90.706 108.24L91.202 109.072C90.8287 109.413 90.37 109.685 89.826 109.888C89.2927 110.091 88.7593 110.192 88.226 110.192C87.0207 110.192 86.0127 109.797 85.202 109.008C84.402 108.219 84.002 107.211 84.002 105.984ZM85.186 105.152H90.242C90.21 104.352 89.9807 103.739 89.554 103.312C89.1273 102.875 88.594 102.656 87.954 102.656C87.2607 102.656 86.658 102.875 86.146 103.312C85.634 103.749 85.314 104.363 85.186 105.152ZM93.3898 110V101.952H94.4778V105.392H99.1818V101.952H100.27V110H99.1818V106.352H94.4778V110H93.3898ZM102.315 105.936C102.315 104.752 102.725 103.76 103.547 102.96C104.368 102.16 105.371 101.76 106.555 101.76C107.739 101.76 108.741 102.16 109.562 102.96C110.395 103.76 110.811 104.752 110.811 105.936C110.811 107.141 110.395 108.155 109.562 108.976C108.741 109.787 107.739 110.192 106.555 110.192C105.371 110.192 104.368 109.787 103.547 108.976C102.725 108.155 102.315 107.141 102.315 105.936ZM103.435 105.936C103.435 106.875 103.733 107.653 104.331 108.272C104.939 108.891 105.68 109.2 106.555 109.2C107.429 109.2 108.171 108.891 108.779 108.272C109.387 107.653 109.691 106.875 109.691 105.936C109.691 105.029 109.387 104.272 108.779 103.664C108.171 103.045 107.429 102.736 106.555 102.736C105.68 102.736 104.939 103.045 104.331 103.664C103.733 104.272 103.435 105.029 103.435 105.936ZM116.843 110V101.952H119.755C120.587 101.952 121.238 102.133 121.707 102.496C122.176 102.848 122.411 103.349 122.411 104C122.411 104.885 122.006 105.477 121.195 105.776V105.808C121.707 105.915 122.107 106.144 122.395 106.496C122.683 106.848 122.827 107.264 122.827 107.744C122.827 108.437 122.566 108.987 122.043 109.392C121.531 109.797 120.822 110 119.915 110H116.843ZM117.931 105.44H119.643C120.176 105.44 120.582 105.323 120.859 105.088C121.147 104.843 121.291 104.501 121.291 104.064C121.291 103.211 120.72 102.784 119.579 102.784H117.931V105.44ZM117.931 109.152H119.771C120.422 109.152 120.907 109.029 121.227 108.784C121.547 108.528 121.707 108.176 121.707 107.728C121.707 107.259 121.536 106.901 121.195 106.656C120.864 106.4 120.384 106.272 119.755 106.272H117.931V109.152ZM128.474 104.304C128.474 102.661 129.002 101.296 130.058 100.208C131.124 99.1093 132.479 98.56 134.122 98.56C135.818 98.56 137.172 99.0453 138.186 100.016L137.594 100.832C137.156 100.448 136.628 100.149 136.01 99.936C135.391 99.712 134.772 99.6 134.154 99.6C132.81 99.6 131.716 100.048 130.874 100.944C130.042 101.829 129.626 102.944 129.626 104.288C129.626 105.653 130.047 106.805 130.89 107.744C131.732 108.683 132.836 109.152 134.202 109.152C135.61 109.152 136.82 108.656 137.834 107.664L138.474 108.448C137.29 109.611 135.855 110.192 134.17 110.192C132.484 110.192 131.114 109.632 130.058 108.512C129.002 107.381 128.474 105.979 128.474 104.304ZM140.296 110V101.952H141.352V107.232C141.352 107.968 141.336 108.368 141.304 108.432H141.336C141.379 108.357 141.656 107.957 142.168 107.232L146.12 101.952H147.16V110H146.088V104.704C146.088 104.565 146.088 104.405 146.088 104.224C146.099 104.043 146.109 103.888 146.12 103.76C146.131 103.621 146.136 103.547 146.136 103.536H146.104C146.104 103.557 146.056 103.632 145.96 103.76C145.875 103.888 145.757 104.048 145.608 104.24C145.469 104.432 145.363 104.587 145.288 104.704L141.336 110H140.296ZM149.397 105.44C149.397 103.989 149.632 102.821 150.101 101.936C150.57 101.051 151.44 100.32 152.709 99.744L155.685 98.352L156.085 99.264L152.981 100.688C152.096 101.104 151.456 101.605 151.061 102.192C150.677 102.779 150.458 103.515 150.405 104.4H150.437C151.066 103.269 152.069 102.704 153.445 102.704C154.448 102.704 155.264 103.04 155.893 103.712C156.533 104.373 156.853 105.275 156.853 106.416C156.853 107.525 156.512 108.432 155.829 109.136C155.146 109.84 154.266 110.192 153.189 110.192C151.92 110.192 150.97 109.76 150.341 108.896C149.712 108.032 149.397 106.88 149.397 105.44ZM150.581 106.4C150.581 107.264 150.826 107.952 151.317 108.464C151.808 108.976 152.421 109.232 153.157 109.232C153.893 109.232 154.506 108.981 154.997 108.48C155.488 107.968 155.733 107.285 155.733 106.432C155.733 105.568 155.488 104.885 154.997 104.384C154.517 103.872 153.925 103.616 153.221 103.616C152.442 103.616 151.808 103.883 151.317 104.416C150.826 104.949 150.581 105.611 150.581 106.4ZM158.968 110V101.952H160.024V107.232C160.024 107.968 160.008 108.368 159.976 108.432H160.008C160.051 108.357 160.328 107.957 160.84 107.232L164.792 101.952H165.832V110H164.76V104.704C164.76 104.565 164.76 104.405 164.76 104.224C164.771 104.043 164.781 103.888 164.792 103.76C164.803 103.621 164.808 103.547 164.808 103.536H164.776C164.776 103.557 164.728 103.632 164.632 103.76C164.547 103.888 164.429 104.048 164.28 104.24C164.141 104.432 164.035 104.587 163.96 104.704L160.008 110H158.968ZM168.421 113.2V101.952H169.461V102.8L169.413 103.424H169.445C169.69 102.901 170.058 102.496 170.549 102.208C171.05 101.909 171.616 101.76 172.245 101.76C173.322 101.76 174.176 102.149 174.805 102.928C175.434 103.696 175.749 104.709 175.749 105.968C175.749 107.237 175.413 108.261 174.741 109.04C174.069 109.808 173.205 110.192 172.149 110.192C171.584 110.192 171.066 110.053 170.597 109.776C170.128 109.488 169.76 109.093 169.493 108.592H169.461C169.493 108.784 169.509 109.019 169.509 109.296V113.2H168.421ZM169.477 106C169.477 106.864 169.706 107.616 170.165 108.256C170.634 108.896 171.258 109.216 172.037 109.216C172.773 109.216 173.392 108.928 173.893 108.352C174.394 107.765 174.645 106.976 174.645 105.984C174.645 105.013 174.405 104.235 173.925 103.648C173.456 103.051 172.842 102.752 172.085 102.752C171.349 102.752 170.73 103.024 170.229 103.568C169.728 104.112 169.477 104.923 169.477 106ZM177.843 110V101.952H178.899V107.232C178.899 107.968 178.883 108.368 178.851 108.432H178.883C178.926 108.357 179.203 107.957 179.715 107.232L183.667 101.952H184.707V110H183.635V104.704C183.635 104.565 183.635 104.405 183.635 104.224C183.646 104.043 183.656 103.888 183.667 103.76C183.678 103.621 183.683 103.547 183.683 103.536H183.651C183.651 103.557 183.603 103.632 183.507 103.76C183.422 103.888 183.304 104.048 183.155 104.24C183.016 104.432 182.91 104.587 182.835 104.704L178.883 110H177.843ZM191.296 110V101.952H198.032V110H196.944V102.912H192.384V110H191.296ZM200.08 105.936C200.08 104.752 200.491 103.76 201.312 102.96C202.133 102.16 203.136 101.76 204.32 101.76C205.504 101.76 206.507 102.16 207.328 102.96C208.16 103.76 208.576 104.752 208.576 105.936C208.576 107.141 208.16 108.155 207.328 108.976C206.507 109.787 205.504 110.192 204.32 110.192C203.136 110.192 202.133 109.787 201.312 108.976C200.491 108.155 200.08 107.141 200.08 105.936ZM201.2 105.936C201.2 106.875 201.499 107.653 202.096 108.272C202.704 108.891 203.445 109.2 204.32 109.2C205.195 109.2 205.936 108.891 206.544 108.272C207.152 107.653 207.456 106.875 207.456 105.936C207.456 105.029 207.152 104.272 206.544 103.664C205.936 103.045 205.195 102.736 204.32 102.736C203.445 102.736 202.704 103.045 202.096 103.664C201.499 104.272 201.2 105.029 201.2 105.936ZM61.581 129.056C60.6743 129.056 59.997 128.837 59.549 128.4C59.101 127.952 58.877 127.323 58.877 126.512V123.952H59.949V126.4C59.949 126.912 60.0717 127.323 60.317 127.632C60.573 127.931 61.0583 128.08 61.773 128.08C62.541 128.08 63.2077 127.861 63.773 127.424V123.952H64.861V132H63.773V128.944L63.805 128.432H63.773C63.101 128.848 62.3703 129.056 61.581 129.056ZM66.9083 127.984C66.9083 126.704 67.2869 125.68 68.0443 124.912C68.8123 124.144 69.7616 123.76 70.8923 123.76C71.9589 123.76 72.7856 124.117 73.3723 124.832C73.9589 125.536 74.2523 126.416 74.2523 127.472C74.2523 127.6 74.2416 127.781 74.2203 128.016H68.0443C68.0656 129.008 68.3749 129.787 68.9723 130.352C69.5696 130.917 70.3003 131.2 71.1643 131.2C72.0923 131.2 72.9083 130.88 73.6123 130.24L74.1083 131.072C73.7349 131.413 73.2763 131.685 72.7323 131.888C72.1989 132.091 71.6656 132.192 71.1323 132.192C69.9269 132.192 68.9189 131.797 68.1083 131.008C67.3083 130.219 66.9083 129.211 66.9083 127.984ZM68.0923 127.152H73.1483C73.1163 126.352 72.8869 125.739 72.4603 125.312C72.0336 124.875 71.5003 124.656 70.8602 124.656C70.1669 124.656 69.5643 124.875 69.0523 125.312C68.5403 125.749 68.2203 126.363 68.0923 127.152ZM75.752 127.984C75.752 126.757 76.1573 125.749 76.968 124.96C77.7787 124.16 78.7813 123.76 79.976 123.76C80.5307 123.76 81.0747 123.861 81.608 124.064C82.1413 124.256 82.5787 124.539 82.92 124.912L82.36 125.728C82.072 125.429 81.7147 125.189 81.288 125.008C80.872 124.827 80.4453 124.736 80.008 124.736C79.112 124.736 78.3653 125.04 77.768 125.648C77.1707 126.256 76.872 127.035 76.872 127.984C76.872 128.923 77.1707 129.696 77.768 130.304C78.376 130.901 79.1333 131.2 80.04 131.2C80.5093 131.2 80.9787 131.104 81.448 130.912C81.9173 130.709 82.3067 130.437 82.616 130.096L83.112 130.912C82.76 131.307 82.3013 131.621 81.736 131.856C81.1813 132.08 80.5947 132.192 79.976 132.192C78.7707 132.192 77.7627 131.803 76.952 131.024C76.152 130.235 75.752 129.221 75.752 127.984ZM86.9679 132V124.912H84.0399V123.952H90.9999V124.912H88.0559V132H86.9679ZM92.671 132V123.952H93.759V127.392H98.463V123.952H99.551V132H98.463V128.352H93.759V132H92.671ZM101.596 127.936C101.596 126.752 102.006 125.76 102.828 124.96C103.649 124.16 104.652 123.76 105.836 123.76C107.02 123.76 108.022 124.16 108.844 124.96C109.676 125.76 110.092 126.752 110.092 127.936C110.092 129.141 109.676 130.155 108.844 130.976C108.022 131.787 107.02 132.192 105.836 132.192C104.652 132.192 103.649 131.787 102.828 130.976C102.006 130.155 101.596 129.141 101.596 127.936ZM102.716 127.936C102.716 128.875 103.014 129.653 103.612 130.272C104.22 130.891 104.961 131.2 105.836 131.2C106.71 131.2 107.452 130.891 108.06 130.272C108.668 129.653 108.972 128.875 108.972 127.936C108.972 127.029 108.668 126.272 108.06 125.664C107.452 125.045 106.71 124.736 105.836 124.736C104.961 124.736 104.22 125.045 103.612 125.664C103.014 126.272 102.716 127.029 102.716 127.936ZM117.036 122.384C116.62 122.725 116.124 122.896 115.548 122.896C114.972 122.896 114.476 122.725 114.06 122.384C113.644 122.043 113.436 121.584 113.436 121.008V120.736H114.38V120.976C114.38 121.317 114.492 121.589 114.716 121.792C114.951 121.984 115.228 122.08 115.548 122.08C115.868 122.08 116.145 121.984 116.38 121.792C116.615 121.589 116.732 121.312 116.732 120.96V120.736H117.66V121.008C117.66 121.584 117.452 122.043 117.036 122.384ZM112.124 132V123.952H113.18V129.232C113.18 129.968 113.164 130.368 113.132 130.432H113.164C113.207 130.357 113.484 129.957 113.996 129.232L117.948 123.952H118.988V132H117.916V126.704C117.916 126.565 117.916 126.405 117.916 126.224C117.927 126.043 117.937 125.888 117.948 125.76C117.959 125.621 117.964 125.547 117.964 125.536H117.932C117.932 125.557 117.884 125.632 117.788 125.76C117.703 125.888 117.585 126.048 117.436 126.24C117.297 126.432 117.191 126.587 117.116 126.704L113.164 132H112.124ZM125.577 132V123.952H126.665V131.04H131.113V123.952H132.217V131.04H133.337V133.92H132.313V132H125.577ZM134.471 127.984C134.471 126.704 134.849 125.68 135.607 124.912C136.375 124.144 137.324 123.76 138.455 123.76C139.521 123.76 140.348 124.117 140.935 124.832C141.521 125.536 141.815 126.416 141.815 127.472C141.815 127.6 141.804 127.781 141.783 128.016H135.607C135.628 129.008 135.937 129.787 136.535 130.352C137.132 130.917 137.863 131.2 138.727 131.2C139.655 131.2 140.471 130.88 141.175 130.24L141.671 131.072C141.297 131.413 140.839 131.685 140.295 131.888C139.761 132.091 139.228 132.192 138.695 132.192C137.489 132.192 136.481 131.797 135.671 131.008C134.871 130.219 134.471 129.211 134.471 127.984ZM135.655 127.152H140.711C140.679 126.352 140.449 125.739 140.023 125.312C139.596 124.875 139.063 124.656 138.423 124.656C137.729 124.656 137.127 124.875 136.615 125.312C136.103 125.749 135.783 126.363 135.655 127.152ZM143.859 132V123.952H144.947V127.392H149.651V123.952H150.739V132H149.651V128.352H144.947V132H143.859ZM152.783 127.984C152.783 126.704 153.162 125.68 153.919 124.912C154.687 124.144 155.637 123.76 156.767 123.76C157.834 123.76 158.661 124.117 159.247 124.832C159.834 125.536 160.127 126.416 160.127 127.472C160.127 127.6 160.117 127.781 160.095 128.016H153.919C153.941 129.008 154.25 129.787 154.847 130.352C155.445 130.917 156.175 131.2 157.039 131.2C157.967 131.2 158.783 130.88 159.487 130.24L159.983 131.072C159.61 131.413 159.151 131.685 158.607 131.888C158.074 132.091 157.541 132.192 157.007 132.192C155.802 132.192 154.794 131.797 153.983 131.008C153.183 130.219 152.783 129.211 152.783 127.984ZM153.967 127.152H159.023C158.991 126.352 158.762 125.739 158.335 125.312C157.909 124.875 157.375 124.656 156.735 124.656C156.042 124.656 155.439 124.875 154.927 125.312C154.415 125.749 154.095 126.363 153.967 127.152Z" fill="white"/>
<path d="M40.5944 84.236L42.1424 81.986C43.1864 82.91 44.3684 83.372 45.6884 83.372C46.6124 83.372 47.3684 83.138 47.9564 82.67C48.5444 82.19 48.9284 81.572 49.1084 80.816H43.7984V78.296H49.1264C48.9464 77.54 48.5564 76.928 47.9564 76.46C47.3564 75.992 46.6004 75.758 45.6884 75.758C44.5004 75.758 43.3544 76.238 42.2504 77.198L40.7924 74.822C42.0164 73.55 43.6904 72.914 45.8144 72.914C47.8544 72.914 49.4744 73.544 50.6744 74.804C51.8744 76.064 52.4744 77.63 52.4744 79.502C52.4744 81.446 51.8384 83.054 50.5664 84.326C49.2944 85.586 47.6624 86.216 45.6704 86.216C43.7984 86.216 42.1064 85.556 40.5944 84.236ZM54.0401 86V76.73H57.1541V79.988H58.0361L59.8721 76.73H63.2561L60.5381 81.14V81.176L63.6341 86H60.0881L58.1261 82.598H57.1541V86H54.0401ZM65.2781 84.884C64.2701 83.984 63.7661 82.82 63.7661 81.392C63.7661 79.964 64.2701 78.794 65.2781 77.882C66.2861 76.97 67.5281 76.514 69.0041 76.514C70.4921 76.514 71.7401 76.97 72.7481 77.882C73.7681 78.782 74.2781 79.952 74.2781 81.392C74.2781 82.82 73.7741 83.984 72.7661 84.884C71.7581 85.772 70.5101 86.216 69.0221 86.216C67.5341 86.216 66.2861 85.772 65.2781 84.884ZM66.9161 81.392C66.9161 82.064 67.1201 82.604 67.5281 83.012C67.9361 83.42 68.4341 83.624 69.0221 83.624C69.6101 83.624 70.1081 83.42 70.5161 83.012C70.9241 82.604 71.1281 82.064 71.1281 81.392C71.1281 80.708 70.9241 80.156 70.5161 79.736C70.1081 79.316 69.6101 79.106 69.0221 79.106C68.4341 79.106 67.9361 79.316 67.5281 79.736C67.1201 80.156 66.9161 80.708 66.9161 81.392ZM74.8893 86.09V83.372C75.0813 83.348 75.2493 83.312 75.3933 83.264C75.5373 83.204 75.6933 83.102 75.8613 82.958C76.0293 82.802 76.1613 82.598 76.2573 82.346C76.3653 82.094 76.4553 81.746 76.5273 81.302C76.5993 80.846 76.6353 80.312 76.6353 79.7V76.73H84.2313V86H81.1173V79.196H79.5693V79.718C79.5693 81.758 79.2153 83.33 78.5073 84.434C77.7993 85.538 76.5933 86.09 74.8893 86.09ZM87.3035 84.884C86.2955 83.984 85.7915 82.82 85.7915 81.392C85.7915 79.964 86.2955 78.794 87.3035 77.882C88.3115 76.97 89.5535 76.514 91.0295 76.514C92.5175 76.514 93.7655 76.97 94.7735 77.882C95.7935 78.782 96.3035 79.952 96.3035 81.392C96.3035 82.82 95.7995 83.984 94.7915 84.884C93.7835 85.772 92.5355 86.216 91.0475 86.216C89.5595 86.216 88.3115 85.772 87.3035 84.884ZM88.9415 81.392C88.9415 82.064 89.1455 82.604 89.5535 83.012C89.9615 83.42 90.4595 83.624 91.0475 83.624C91.6355 83.624 92.1335 83.42 92.5415 83.012C92.9495 82.604 93.1535 82.064 93.1535 81.392C93.1535 80.708 92.9495 80.156 92.5415 79.736C92.1335 79.316 91.6355 79.106 91.0475 79.106C90.4595 79.106 89.9615 79.316 89.5535 79.736C89.1455 80.156 88.9415 80.708 88.9415 81.392ZM97.8624 86V76.73H104.396V79.34H100.976V86H97.8624ZM105.702 86V76.73H108.636V80.816C108.636 81.116 108.624 81.422 108.6 81.734H108.636C108.708 81.554 108.876 81.248 109.14 80.816L111.714 76.73H114.738V86H111.804V81.95C111.804 81.566 111.816 81.254 111.84 81.014H111.804C111.768 81.11 111.6 81.416 111.3 81.932L108.726 86H105.702ZM119.493 83.156C118.629 83.156 117.885 82.904 117.261 82.4C116.649 81.896 116.343 81.086 116.343 79.97V76.73H119.403V79.376C119.403 80.204 119.799 80.618 120.591 80.618C121.107 80.618 121.575 80.468 121.995 80.168V76.73H125.109V86H121.995V83.102L122.013 82.67H121.977C121.257 82.994 120.429 83.156 119.493 83.156ZM127.2 86V76.73H130.314V80.006H133.176V76.73H136.29V86H133.176V82.616H130.314V86H127.2ZM139.37 84.884C138.362 83.984 137.858 82.82 137.858 81.392C137.858 79.964 138.362 78.794 139.37 77.882C140.378 76.97 141.62 76.514 143.096 76.514C144.584 76.514 145.832 76.97 146.84 77.882C147.86 78.782 148.37 79.952 148.37 81.392C148.37 82.82 147.866 83.984 146.858 84.884C145.85 85.772 144.602 86.216 143.114 86.216C141.626 86.216 140.378 85.772 139.37 84.884ZM141.008 81.392C141.008 82.064 141.212 82.604 141.62 83.012C142.028 83.42 142.526 83.624 143.114 83.624C143.702 83.624 144.2 83.42 144.608 83.012C145.016 82.604 145.22 82.064 145.22 81.392C145.22 80.708 145.016 80.156 144.608 79.736C144.2 79.316 143.702 79.106 143.114 79.106C142.526 79.106 142.028 79.316 141.62 79.736C141.212 80.156 141.008 80.708 141.008 81.392ZM149.407 81.356C149.407 80.036 149.869 78.902 150.793 77.954C151.729 76.994 152.989 76.514 154.573 76.514C155.269 76.514 155.947 76.634 156.607 76.874C157.279 77.102 157.831 77.45 158.263 77.918L156.949 80.006C156.325 79.406 155.599 79.106 154.771 79.106C154.075 79.106 153.529 79.328 153.133 79.772C152.749 80.204 152.557 80.72 152.557 81.32C152.557 81.932 152.761 82.472 153.169 82.94C153.577 83.396 154.147 83.624 154.879 83.624C155.707 83.624 156.553 83.252 157.417 82.508L158.551 84.686C158.095 85.154 157.507 85.526 156.787 85.802C156.079 86.078 155.341 86.216 154.573 86.216C152.989 86.216 151.729 85.742 150.793 84.794C149.869 83.846 149.407 82.7 149.407 81.356ZM161.894 86V79.34H159.086V76.73H167.834V79.34H165.008V86H161.894ZM169.142 86V76.73H172.256V79.628H173.768C175.016 79.628 175.94 79.916 176.54 80.492C177.14 81.068 177.44 81.848 177.44 82.832C177.44 83.816 177.14 84.59 176.54 85.154C175.94 85.718 175.016 86 173.768 86H169.142ZM172.256 83.966H173.192C173.552 83.966 173.828 83.858 174.02 83.642C174.224 83.426 174.326 83.15 174.326 82.814C174.326 82.478 174.224 82.202 174.02 81.986C173.816 81.758 173.522 81.644 173.138 81.644H172.256V83.966Z" fill="white"/>
<g clip-path="url(#clip0_20_77)">
<path d="M134.432 23.0872L114.082 2.60252C114.056 2.57615 114.029 2.55056 114.001 2.52576C111.779 0.530543 108.421 0.523414 106.19 2.50925C106.163 2.53396 106.136 2.55945 106.109 2.58562L85.5734 23.0813C84.8099 23.8433 84.8087 25.08 85.5707 25.8434C86.3328 26.607 87.5694 26.6081 88.3328 25.8462L89.8828 24.2992V41.1629C89.8828 45.4707 93.3875 48.9754 97.6953 48.9754H122.305C126.612 48.9754 130.117 45.4707 130.117 41.1629C130.117 40.0842 129.243 39.2097 128.164 39.2097C127.085 39.2097 126.211 40.0842 126.211 41.1629C126.211 43.3168 124.459 45.0691 122.305 45.0691H97.6953C95.5414 45.0691 93.7891 43.3168 93.7891 41.1629V20.4597C93.7891 20.4407 93.7868 20.4222 93.7862 20.4034L108.823 5.39636C109.555 4.77498 110.628 4.77732 111.357 5.40173L126.211 20.354V31.3972C126.211 32.476 127.085 33.3504 128.164 33.3504C129.243 33.3504 130.117 32.476 130.117 31.3972V24.2859L131.661 25.8403C132.043 26.2246 132.545 26.4169 133.047 26.4169C133.545 26.4169 134.042 26.2277 134.423 25.8493C135.189 25.089 135.193 23.8524 134.432 23.0872Z" fill="white"/>
<path d="M98.5287 41.4934C98.8696 41.7321 99.2602 41.8467 99.647 41.8467C100.263 41.8467 100.869 41.5564 101.249 41.0137C101.264 40.9914 102.191 39.6709 103.343 38.178C104.243 38.688 105.806 39.3076 108.282 39.3076C110.873 39.3076 113.278 38.2107 115.43 36.0475C120.818 30.6304 120.863 21.6087 120.838 20.2576C120.838 20.2509 120.839 20.2444 120.839 20.2377C120.875 19.1621 120.035 18.2597 118.959 18.2198C118.548 18.2048 108.796 17.911 103.081 23.6575C100.852 25.8977 99.7305 28.3146 99.7464 30.8411C99.7574 32.5972 100.322 34.0523 100.817 35.0672C99.3668 36.8946 98.1254 38.6635 98.0485 38.7733C97.43 39.6569 97.6449 40.8747 98.5287 41.4934ZM105.85 26.4122C109.015 23.2305 114.101 22.4015 116.869 22.1905C116.665 24.969 115.848 30.0876 112.66 33.2926C110.78 35.1827 109.261 35.4012 108.282 35.4012C107.238 35.4012 106.488 35.2538 105.955 35.075C107.896 33.0701 110.988 30.6081 111.02 30.583C111.864 29.912 112.005 28.6834 111.334 27.8388C110.663 26.9941 109.435 26.8531 108.59 27.524C108.466 27.6229 105.828 29.7228 103.755 31.7493C103.693 31.4513 103.655 31.1395 103.653 30.8164C103.643 29.3691 104.383 27.8873 105.85 26.4122Z" fill="white"/>
</g>
<defs>
<clipPath id="clip0_20_77">
<rect width="50" height="50" fill="white" transform="translate(85)"/>
</clipPath>
</defs>
</svg>
