<svg width="219" height="138" viewBox="0 0 219 138" fill="none" xmlns="http://www.w3.org/2000/svg">
<path d="M6.48069 109.088C7.48335 108.949 8.17669 108.213 8.56069 106.88C8.95535 105.547 9.15269 103.595 9.15269 101.024V98.752H15.3287V110H14.2087V99.744H10.2247V101.04C10.2247 102.469 10.1714 103.691 10.0647 104.704C9.95802 105.707 9.77135 106.629 9.50469 107.472C9.23802 108.304 8.85402 108.944 8.35269 109.392C7.85135 109.829 7.22735 110.075 6.48069 110.128V109.088ZM17.6497 112.016C17.9484 112.261 18.2684 112.384 18.6097 112.384C19.2497 112.384 19.7617 111.947 20.1457 111.072L20.6257 109.92L17.2817 101.952H18.4817L20.8337 107.824L21.1377 108.672H21.1697C21.2444 108.373 21.335 108.091 21.4417 107.824L23.7617 101.952H24.9297L20.9617 111.68C20.7484 112.203 20.439 112.613 20.0337 112.912C19.639 113.211 19.1804 113.36 18.6577 113.36C18.4124 113.36 18.167 113.317 17.9217 113.232C17.687 113.157 17.5164 113.083 17.4097 113.008L17.2337 112.88L17.6497 112.016ZM28.8076 107.056C27.9009 107.056 27.2236 106.837 26.7756 106.4C26.3276 105.952 26.1036 105.323 26.1036 104.512V101.952H27.1756V104.4C27.1756 104.912 27.2982 105.323 27.5436 105.632C27.7996 105.931 28.2849 106.08 28.9996 106.08C29.7676 106.08 30.4342 105.861 30.9996 105.424V101.952H32.0876V110H30.9996V106.944L31.0316 106.432H30.9996C30.3276 106.848 29.5969 107.056 28.8076 107.056ZM34.6788 110V101.952H35.7348V109.04H39.1908V101.952H40.2468V109.04H43.6868V101.952H44.7428V110H34.6788ZM47.3351 110V101.952H48.3911V107.232C48.3911 107.968 48.3751 108.368 48.3431 108.432H48.3751C48.4177 108.357 48.6951 107.957 49.2071 107.232L53.1591 101.952H54.1991V110H53.1271V104.704C53.1271 104.565 53.1271 104.405 53.1271 104.224C53.1377 104.043 53.1484 103.888 53.1591 103.76C53.1697 103.621 53.1751 103.547 53.1751 103.536H53.1431C53.1431 103.557 53.0951 103.632 52.9991 103.76C52.9137 103.888 52.7964 104.048 52.6471 104.24C52.5084 104.432 52.4017 104.587 52.3271 104.704L48.3751 110H47.3351ZM56.2442 105.984C56.2442 104.704 56.6229 103.68 57.3802 102.912C58.1482 102.144 59.0975 101.76 60.2282 101.76C61.2949 101.76 62.1215 102.117 62.7082 102.832C63.2949 103.536 63.5882 104.416 63.5882 105.472C63.5882 105.6 63.5775 105.781 63.5562 106.016H57.3802C57.4015 107.008 57.7109 107.787 58.3082 108.352C58.9055 108.917 59.6362 109.2 60.5002 109.2C61.4282 109.2 62.2442 108.88 62.9482 108.24L63.4442 109.072C63.0709 109.413 62.6122 109.685 62.0682 109.888C61.5349 110.091 61.0015 110.192 60.4682 110.192C59.2629 110.192 58.2549 109.797 57.4442 109.008C56.6442 108.219 56.2442 107.211 56.2442 105.984ZM57.4282 105.152H62.4842C62.4522 104.352 62.2229 103.739 61.7962 103.312C61.3695 102.875 60.8362 102.656 60.1962 102.656C59.5029 102.656 58.9002 102.875 58.3882 103.312C57.8762 103.749 57.5562 104.363 57.4282 105.152ZM69.6319 110V101.952H70.7199V105.36H71.9999L74.4159 101.952H75.6959L72.8959 105.776V105.808L76.0159 110H74.6879L72.0159 106.32H70.7199V110H69.6319ZM76.6661 105.936C76.6661 104.752 77.0767 103.76 77.8981 102.96C78.7194 102.16 79.7221 101.76 80.9061 101.76C82.0901 101.76 83.0927 102.16 83.9141 102.96C84.7461 103.76 85.1621 104.752 85.1621 105.936C85.1621 107.141 84.7461 108.155 83.9141 108.976C83.0927 109.787 82.0901 110.192 80.9061 110.192C79.7221 110.192 78.7194 109.787 77.8981 108.976C77.0767 108.155 76.6661 107.141 76.6661 105.936ZM77.7861 105.936C77.7861 106.875 78.0847 107.653 78.6821 108.272C79.2901 108.891 80.0314 109.2 80.9061 109.2C81.7807 109.2 82.5221 108.891 83.1301 108.272C83.7381 107.653 84.0421 106.875 84.0421 105.936C84.0421 105.029 83.7381 104.272 83.1301 103.664C82.5221 103.045 81.7807 102.736 80.9061 102.736C80.0314 102.736 79.2901 103.045 78.6821 103.664C78.0847 104.272 77.7861 105.029 77.7861 105.936ZM86.8904 110L87.5464 101.952H88.6984L91.1144 106.912L91.6104 108.048H91.6424C91.8131 107.632 91.9784 107.253 92.1384 106.912L94.5704 101.952H95.7064L96.3784 110H95.3064L94.9064 104.8V103.408H94.8744C94.7571 103.749 94.5864 104.139 94.3624 104.576L92.1224 109.072H91.1304L88.9064 104.608L88.3784 103.408H88.3464C88.3678 104.048 88.3678 104.512 88.3464 104.8L87.9464 110H86.8904ZM98.6632 110V101.952H105.399V110H104.311V102.912H99.7512V110H98.6632ZM107.015 110.064V109.088C107.677 108.981 108.162 108.549 108.471 107.792C108.781 107.024 108.935 105.888 108.935 104.384V101.952H113.863V110H112.775V102.896H109.991V104.384C109.991 106.283 109.751 107.685 109.271 108.592C108.802 109.488 108.05 109.979 107.015 110.064ZM115.932 105.984C115.932 104.704 116.31 103.68 117.068 102.912C117.836 102.144 118.785 101.76 119.916 101.76C120.982 101.76 121.809 102.117 122.396 102.832C122.982 103.536 123.276 104.416 123.276 105.472C123.276 105.6 123.265 105.781 123.244 106.016H117.068C117.089 107.008 117.398 107.787 117.996 108.352C118.593 108.917 119.324 109.2 120.188 109.2C121.116 109.2 121.932 108.88 122.636 108.24L123.132 109.072C122.758 109.413 122.3 109.685 121.756 109.888C121.222 110.091 120.689 110.192 120.156 110.192C118.95 110.192 117.942 109.797 117.132 109.008C116.332 108.219 115.932 107.211 115.932 105.984ZM117.116 105.152H122.172C122.14 104.352 121.91 103.739 121.484 103.312C121.057 102.875 120.524 102.656 119.884 102.656C119.19 102.656 118.588 102.875 118.076 103.312C117.564 103.749 117.244 104.363 117.116 105.152ZM125.319 110V101.952H126.407V105.36H127.687L130.103 101.952H131.383L128.583 105.776V105.808L131.703 110H130.375L127.703 106.32H126.407V110H125.319ZM135.241 110V102.912H132.313V101.952H139.273V102.912H136.329V110H135.241ZM140.368 112.016C140.667 112.261 140.987 112.384 141.328 112.384C141.968 112.384 142.48 111.947 142.864 111.072L143.344 109.92L140 101.952H141.2L143.552 107.824L143.856 108.672H143.888C143.963 108.373 144.054 108.091 144.16 107.824L146.48 101.952H147.648L143.68 111.68C143.467 112.203 143.158 112.613 142.752 112.912C142.358 113.211 141.899 113.36 141.376 113.36C141.131 113.36 140.886 113.317 140.64 113.232C140.406 113.157 140.235 113.083 140.128 113.008L139.952 112.88L140.368 112.016ZM149.366 110V101.952H150.454V105.504H152.054C152.161 104.427 152.598 103.536 153.366 102.832C154.134 102.117 155.046 101.76 156.102 101.76C157.244 101.76 158.214 102.16 159.014 102.96C159.814 103.76 160.214 104.752 160.214 105.936C160.214 107.141 159.814 108.155 159.014 108.976C158.225 109.787 157.26 110.192 156.118 110.192C155.062 110.192 154.15 109.84 153.382 109.136C152.625 108.421 152.188 107.525 152.07 106.448H150.454V110H149.366ZM153.142 105.936C153.142 106.875 153.43 107.653 154.006 108.272C154.582 108.891 155.286 109.2 156.118 109.2C156.94 109.2 157.638 108.891 158.214 108.272C158.79 107.653 159.078 106.875 159.078 105.936C159.078 105.029 158.79 104.272 158.214 103.664C157.638 103.045 156.94 102.736 156.118 102.736C155.286 102.736 154.582 103.045 154.006 103.664C153.43 104.272 153.142 105.029 153.142 105.936ZM162.241 110V101.952H163.297V109.04H166.753V101.952H167.809V109.04H171.249V101.952H172.305V109.04H173.441V111.92H172.417V110H162.241ZM175.21 110V101.952H176.266V107.232C176.266 107.968 176.25 108.368 176.218 108.432H176.25C176.293 108.357 176.57 107.957 177.082 107.232L181.034 101.952H182.074V110H181.002V104.704C181.002 104.565 181.002 104.405 181.002 104.224C181.013 104.043 181.023 103.888 181.034 103.76C181.045 103.621 181.05 103.547 181.05 103.536H181.018C181.018 103.557 180.97 103.632 180.874 103.76C180.789 103.888 180.671 104.048 180.522 104.24C180.383 104.432 180.277 104.587 180.202 104.704L176.25 110H175.21ZM184.119 105.984C184.119 104.704 184.498 103.68 185.255 102.912C186.023 102.144 186.973 101.76 188.103 101.76C189.17 101.76 189.997 102.117 190.583 102.832C191.17 103.536 191.463 104.416 191.463 105.472C191.463 105.6 191.453 105.781 191.431 106.016H185.255C185.277 107.008 185.586 107.787 186.183 108.352C186.781 108.917 187.511 109.2 188.375 109.2C189.303 109.2 190.119 108.88 190.823 108.24L191.319 109.072C190.946 109.413 190.487 109.685 189.943 109.888C189.41 110.091 188.877 110.192 188.343 110.192C187.138 110.192 186.13 109.797 185.319 109.008C184.519 108.219 184.119 107.211 184.119 105.984ZM185.303 105.152H190.359C190.327 104.352 190.098 103.739 189.671 103.312C189.245 102.875 188.711 102.656 188.071 102.656C187.378 102.656 186.775 102.875 186.263 103.312C185.751 103.749 185.431 104.363 185.303 105.152ZM197.507 110V101.952H198.563V107.232C198.563 107.968 198.547 108.368 198.515 108.432H198.547C198.59 108.357 198.867 107.957 199.379 107.232L203.331 101.952H204.371V110H203.299V104.704C203.299 104.565 203.299 104.405 203.299 104.224C203.31 104.043 203.32 103.888 203.331 103.76C203.342 103.621 203.347 103.547 203.347 103.536H203.315C203.315 103.557 203.267 103.632 203.171 103.76C203.086 103.888 202.968 104.048 202.819 104.24C202.68 104.432 202.574 104.587 202.499 104.704L198.547 110H197.507ZM206.144 109.024L206.72 108.272C207.349 108.933 208.069 109.264 208.88 109.264C209.413 109.264 209.867 109.131 210.24 108.864C210.624 108.587 210.816 108.197 210.816 107.696C210.816 106.747 210.165 106.272 208.864 106.272H207.888V105.408H208.736C209.301 105.408 209.739 105.296 210.048 105.072C210.368 104.837 210.528 104.496 210.528 104.048C210.528 103.6 210.379 103.264 210.08 103.04C209.781 102.805 209.376 102.688 208.864 102.688C208.16 102.688 207.504 102.928 206.896 103.408L206.416 102.64C207.12 102.053 207.989 101.76 209.024 101.76C209.803 101.76 210.432 101.947 210.912 102.32C211.403 102.693 211.648 103.227 211.648 103.92C211.648 104.827 211.237 105.44 210.416 105.76V105.792C210.875 105.909 211.243 106.133 211.52 106.464C211.797 106.795 211.936 107.216 211.936 107.728C211.936 108.507 211.643 109.115 211.056 109.552C210.48 109.979 209.776 110.192 208.944 110.192C207.877 110.192 206.944 109.803 206.144 109.024ZM55.4207 132V120.752H59.3087C60.322 120.752 61.154 121.061 61.8047 121.68C62.4554 122.299 62.7807 123.12 62.7807 124.144C62.7807 125.179 62.4554 126.011 61.8047 126.64C61.154 127.269 60.322 127.584 59.3087 127.584H56.5247V132H55.4207ZM56.5247 126.592H59.1647C59.922 126.592 60.5247 126.373 60.9727 125.936C61.4207 125.499 61.6447 124.901 61.6447 124.144C61.6447 123.397 61.4207 122.811 60.9727 122.384C60.5354 121.957 59.938 121.744 59.1807 121.744H56.5247V126.592ZM63.8379 127.936C63.8379 126.752 64.2486 125.76 65.0699 124.96C65.8913 124.16 66.8939 123.76 68.0779 123.76C69.2619 123.76 70.2646 124.16 71.0859 124.96C71.9179 125.76 72.3339 126.752 72.3339 127.936C72.3339 129.141 71.9179 130.155 71.0859 130.976C70.2646 131.787 69.2619 132.192 68.0779 132.192C66.8939 132.192 65.8913 131.787 65.0699 130.976C64.2486 130.155 63.8379 129.141 63.8379 127.936ZM64.9579 127.936C64.9579 128.875 65.2566 129.653 65.8539 130.272C66.4619 130.891 67.2033 131.2 68.0779 131.2C68.9526 131.2 69.6939 130.891 70.3019 130.272C70.9099 129.653 71.2139 128.875 71.2139 127.936C71.2139 127.029 70.9099 126.272 70.3019 125.664C69.6939 125.045 68.9526 124.736 68.0779 124.736C67.2033 124.736 66.4619 125.045 65.8539 125.664C65.2566 126.272 64.9579 127.029 64.9579 127.936ZM73.8223 127.984C73.8223 126.757 74.2276 125.749 75.0383 124.96C75.849 124.16 76.8516 123.76 78.0463 123.76C78.601 123.76 79.145 123.861 79.6783 124.064C80.2116 124.256 80.649 124.539 80.9903 124.912L80.4303 125.728C80.1423 125.429 79.785 125.189 79.3583 125.008C78.9423 124.827 78.5156 124.736 78.0783 124.736C77.1823 124.736 76.4356 125.04 75.8383 125.648C75.241 126.256 74.9423 127.035 74.9423 127.984C74.9423 128.923 75.241 129.696 75.8383 130.304C76.4463 130.901 77.2036 131.2 78.1103 131.2C78.5796 131.2 79.049 131.104 79.5183 130.912C79.9876 130.709 80.377 130.437 80.6863 130.096L81.1823 130.912C80.8303 131.307 80.3716 131.621 79.8063 131.856C79.2516 132.08 78.665 132.192 78.0463 132.192C76.841 132.192 75.833 131.803 75.0223 131.024C74.2223 130.235 73.8223 129.221 73.8223 127.984ZM82.3067 127.984C82.3067 126.757 82.712 125.749 83.5227 124.96C84.3334 124.16 85.336 123.76 86.5307 123.76C87.0854 123.76 87.6294 123.861 88.1627 124.064C88.696 124.256 89.1334 124.539 89.4747 124.912L88.9147 125.728C88.6267 125.429 88.2694 125.189 87.8427 125.008C87.4267 124.827 87 124.736 86.5627 124.736C85.6667 124.736 84.92 125.04 84.3227 125.648C83.7254 126.256 83.4267 127.035 83.4267 127.984C83.4267 128.923 83.7254 129.696 84.3227 130.304C84.9307 130.901 85.688 131.2 86.5947 131.2C87.064 131.2 87.5334 131.104 88.0027 130.912C88.472 130.709 88.8614 130.437 89.1707 130.096L89.6667 130.912C89.3147 131.307 88.856 131.621 88.2907 131.856C87.736 132.08 87.1494 132.192 86.5307 132.192C85.3254 132.192 84.3174 131.803 83.5067 131.024C82.7067 130.235 82.3067 129.221 82.3067 127.984ZM91.5226 132V123.952H92.5786V129.232C92.5786 129.968 92.5626 130.368 92.5306 130.432H92.5626C92.6052 130.357 92.8826 129.957 93.3946 129.232L97.3466 123.952H98.3866V132H97.3146V126.704C97.3146 126.565 97.3146 126.405 97.3146 126.224C97.3252 126.043 97.3359 125.888 97.3466 125.76C97.3572 125.621 97.3626 125.547 97.3626 125.536H97.3306C97.3306 125.557 97.2826 125.632 97.1866 125.76C97.1012 125.888 96.9839 126.048 96.8346 126.24C96.6959 126.432 96.5892 126.587 96.5146 126.704L92.5626 132H91.5226ZM100.976 132V123.952H102.032V129.232C102.032 129.968 102.016 130.368 101.984 130.432H102.016C102.058 130.357 102.336 129.957 102.848 129.232L106.8 123.952H107.84V132H106.768V126.704C106.768 126.565 106.768 126.405 106.768 126.224C106.778 126.043 106.789 125.888 106.8 125.76C106.81 125.621 106.816 125.547 106.816 125.536H106.784C106.784 125.557 106.736 125.632 106.64 125.76C106.554 125.888 106.437 126.048 106.288 126.24C106.149 126.432 106.042 126.587 105.968 126.704L102.016 132H100.976ZM114.429 132V123.952H115.485V129.232C115.485 129.968 115.469 130.368 115.437 130.432H115.469C115.511 130.357 115.789 129.957 116.301 129.232L120.253 123.952H121.293V132H120.221V126.704C120.221 126.565 120.221 126.405 120.221 126.224C120.231 126.043 120.242 125.888 120.253 125.76C120.263 125.621 120.269 125.547 120.269 125.536H120.237C120.237 125.557 120.189 125.632 120.093 125.76C120.007 125.888 119.89 126.048 119.741 126.24C119.602 126.432 119.495 126.587 119.421 126.704L115.469 132H114.429ZM127.578 132L128.234 123.952H129.386L131.802 128.912L132.298 130.048H132.33C132.501 129.632 132.666 129.253 132.826 128.912L135.258 123.952H136.394L137.066 132H135.994L135.594 126.8V125.408H135.562C135.445 125.749 135.274 126.139 135.05 126.576L132.81 131.072H131.818L129.594 126.608L129.066 125.408H129.034C129.055 126.048 129.055 126.512 129.034 126.8L128.634 132H127.578ZM139.351 132V123.952H140.407V129.232C140.407 129.968 140.391 130.368 140.359 130.432H140.391C140.433 130.357 140.711 129.957 141.223 129.232L145.175 123.952H146.215V132H145.143V126.704C145.143 126.565 145.143 126.405 145.143 126.224C145.153 126.043 145.164 125.888 145.175 125.76C145.185 125.621 145.191 125.547 145.191 125.536H145.159C145.159 125.557 145.111 125.632 145.015 125.76C144.929 125.888 144.812 126.048 144.663 126.24C144.524 126.432 144.417 126.587 144.343 126.704L140.391 132H139.351ZM148.804 135.2V123.952H149.844V124.8L149.796 125.424H149.828C150.073 124.901 150.441 124.496 150.932 124.208C151.433 123.909 151.998 123.76 152.628 123.76C153.705 123.76 154.558 124.149 155.188 124.928C155.817 125.696 156.132 126.709 156.132 127.968C156.132 129.237 155.796 130.261 155.124 131.04C154.452 131.808 153.588 132.192 152.532 132.192C151.966 132.192 151.449 132.053 150.98 131.776C150.51 131.488 150.142 131.093 149.876 130.592H149.844C149.876 130.784 149.892 131.019 149.892 131.296V135.2H148.804ZM149.86 128C149.86 128.864 150.089 129.616 150.548 130.256C151.017 130.896 151.641 131.216 152.42 131.216C153.156 131.216 153.774 130.928 154.276 130.352C154.777 129.765 155.028 128.976 155.028 127.984C155.028 127.013 154.788 126.235 154.308 125.648C153.838 125.051 153.225 124.752 152.468 124.752C151.732 124.752 151.113 125.024 150.612 125.568C150.11 126.112 149.86 126.923 149.86 128ZM157.522 129.84C157.522 127.973 159.154 127.04 162.418 127.04H162.898V126.816C162.898 125.429 162.236 124.736 160.914 124.736C160.092 124.736 159.33 124.992 158.626 125.504L158.13 124.672C158.45 124.395 158.871 124.176 159.394 124.016C159.916 123.845 160.444 123.76 160.978 123.76C161.948 123.76 162.69 124.027 163.202 124.56C163.724 125.083 163.986 125.845 163.986 126.848V132H162.946V131.056L162.994 130.384H162.962C162.738 130.896 162.38 131.328 161.89 131.68C161.41 132.021 160.86 132.192 160.242 132.192C159.506 132.192 158.866 131.984 158.322 131.568C157.788 131.152 157.522 130.576 157.522 129.84ZM158.626 129.744C158.626 130.149 158.786 130.507 159.106 130.816C159.426 131.125 159.868 131.28 160.434 131.28C161.17 131.28 161.762 130.971 162.21 130.352C162.668 129.733 162.898 129.04 162.898 128.272V127.904H162.434C162.092 127.904 161.794 127.909 161.538 127.92C161.292 127.931 160.967 127.973 160.562 128.048C160.167 128.112 159.842 128.203 159.586 128.32C159.33 128.437 159.106 128.619 158.914 128.864C158.722 129.109 158.626 129.403 158.626 129.744Z" fill="white"/>
<path d="M68.6107 86V73.13H71.7607V78.098H73.0567L75.7207 73.13H79.1047L75.6307 79.286V79.322L79.3027 86H75.7747L73.0567 80.78H71.7607V86H68.6107ZM79.6446 83.39C79.6446 82.802 79.8066 82.292 80.1306 81.86C80.4546 81.428 80.8806 81.098 81.4086 80.87C81.9486 80.642 82.5066 80.48 83.0826 80.384C83.6586 80.276 84.2586 80.222 84.8826 80.222H85.1526V80.06C85.1526 79.376 84.7146 79.034 83.8386 79.034C83.0226 79.034 82.1706 79.328 81.2826 79.916L80.2026 77.72C80.6226 77.396 81.1986 77.114 81.9306 76.874C82.6746 76.634 83.4066 76.514 84.1266 76.514C85.4106 76.514 86.4186 76.85 87.1506 77.522C87.8946 78.194 88.2666 79.118 88.2666 80.294V86H85.4226V85.442L85.4586 84.866H85.4226C85.1226 85.286 84.7206 85.616 84.2166 85.856C83.7246 86.096 83.2086 86.216 82.6686 86.216C81.7806 86.216 81.0546 85.946 80.4906 85.406C79.9266 84.866 79.6446 84.194 79.6446 83.39ZM82.7226 83.102C82.7226 83.33 82.8006 83.522 82.9566 83.678C83.1126 83.822 83.3286 83.894 83.6046 83.894C84.0366 83.894 84.4086 83.72 84.7206 83.372C85.0326 83.024 85.1886 82.652 85.1886 82.256V82.004H84.9006C84.3246 82.004 83.8146 82.094 83.3706 82.274C82.9386 82.442 82.7226 82.718 82.7226 83.102ZM92.9062 83.156C92.0422 83.156 91.2982 82.904 90.6742 82.4C90.0622 81.896 89.7562 81.086 89.7562 79.97V76.73H92.8162V79.376C92.8162 80.204 93.2122 80.618 94.0042 80.618C94.5202 80.618 94.9882 80.468 95.4082 80.168V76.73H98.5222V86H95.4082V83.102L95.4262 82.67H95.3902C94.6702 82.994 93.8422 83.156 92.9062 83.156ZM100.091 81.356C100.091 79.964 100.529 78.812 101.405 77.9C102.281 76.976 103.451 76.514 104.915 76.514C106.247 76.514 107.291 76.934 108.047 77.774C108.815 78.602 109.199 79.676 109.199 80.996C109.199 81.212 109.175 81.536 109.127 81.968H103.277C103.385 82.508 103.637 82.922 104.033 83.21C104.441 83.486 104.909 83.624 105.437 83.624C106.205 83.624 107.057 83.312 107.993 82.688L109.145 84.866C108.653 85.286 108.047 85.616 107.327 85.856C106.619 86.096 105.905 86.216 105.185 86.216C103.613 86.216 102.371 85.736 101.459 84.776C100.547 83.816 100.091 82.676 100.091 81.356ZM103.349 80.186H106.121C106.121 79.79 106.001 79.46 105.761 79.196C105.533 78.932 105.227 78.8 104.843 78.8C104.051 78.8 103.553 79.262 103.349 80.186ZM110.304 81.356C110.304 80.036 110.766 78.902 111.69 77.954C112.626 76.994 113.886 76.514 115.47 76.514C116.166 76.514 116.844 76.634 117.504 76.874C118.176 77.102 118.728 77.45 119.16 77.918L117.846 80.006C117.222 79.406 116.496 79.106 115.668 79.106C114.972 79.106 114.426 79.328 114.03 79.772C113.646 80.204 113.454 80.72 113.454 81.32C113.454 81.932 113.658 82.472 114.066 82.94C114.474 83.396 115.044 83.624 115.776 83.624C116.604 83.624 117.45 83.252 118.314 82.508L119.448 84.686C118.992 85.154 118.404 85.526 117.684 85.802C116.976 86.078 116.238 86.216 115.47 86.216C113.886 86.216 112.626 85.742 111.69 84.794C110.766 83.846 110.304 82.7 110.304 81.356ZM122.792 86V79.34H119.984V76.73H128.732V79.34H125.906V86H122.792ZM130.039 86V76.73H135.097C136.057 76.73 136.819 76.94 137.383 77.36C137.959 77.78 138.247 78.38 138.247 79.16C138.247 79.568 138.151 79.958 137.959 80.33C137.767 80.69 137.503 80.972 137.167 81.176V81.194C137.659 81.35 138.025 81.62 138.265 82.004C138.505 82.376 138.625 82.79 138.625 83.246C138.625 84.194 138.289 84.89 137.617 85.334C136.957 85.778 136.117 86 135.097 86H130.039ZM133.153 80.384H134.323C134.599 80.384 134.803 80.3 134.935 80.132C135.079 79.952 135.151 79.73 135.151 79.466C135.151 79.226 135.079 79.034 134.935 78.89C134.791 78.734 134.575 78.656 134.287 78.656H133.153V80.384ZM133.153 84.056H134.521C134.833 84.056 135.073 83.966 135.241 83.786C135.421 83.606 135.511 83.39 135.511 83.138C135.511 82.874 135.427 82.652 135.259 82.472C135.091 82.292 134.851 82.202 134.539 82.202H133.153V84.056ZM141.224 84.884C140.216 83.984 139.712 82.82 139.712 81.392C139.712 79.964 140.216 78.794 141.224 77.882C142.232 76.97 143.474 76.514 144.95 76.514C146.438 76.514 147.686 76.97 148.694 77.882C149.714 78.782 150.224 79.952 150.224 81.392C150.224 82.82 149.72 83.984 148.712 84.884C147.704 85.772 146.456 86.216 144.968 86.216C143.48 86.216 142.232 85.772 141.224 84.884ZM142.862 81.392C142.862 82.064 143.066 82.604 143.474 83.012C143.882 83.42 144.38 83.624 144.968 83.624C145.556 83.624 146.054 83.42 146.462 83.012C146.87 82.604 147.074 82.064 147.074 81.392C147.074 80.708 146.87 80.156 146.462 79.736C146.054 79.316 145.556 79.106 144.968 79.106C144.38 79.106 143.882 79.316 143.474 79.736C143.066 80.156 142.862 80.708 142.862 81.392Z" fill="white"/>
<path d="M131.819 24.3447L125.959 12.626C125.676 12.1281 125.277 11.8164 124.649 11.8164H95.3518C94.7393 11.8164 94.3298 12.1203 94.0413 12.626L88.1819 24.3447C87.9106 24.9209 88.0035 25.4999 88.388 25.9619L108.896 49.4971C109.174 49.8164 109.576 50 110 50C110.424 50 110.826 49.8164 111.105 49.4971L131.613 25.9619C131.995 25.5022 132.092 24.9239 131.819 24.3447ZM122.279 14.7461L118.539 22.2246L112.93 14.7461H122.279ZM115.86 23.5352H104.141L110 15.7227L115.86 23.5352ZM107.071 14.7461L101.461 22.2246L97.722 14.7461H107.071ZM95.3518 16.5566L98.8411 23.5352H91.8626L95.3518 16.5566ZM92.7122 26.4648H100.243L107.465 43.3965L92.7122 26.4648ZM110 41.8721L103.429 26.4648H116.572L110 41.8721ZM112.535 43.3965L119.757 26.4648H127.288L112.535 43.3965ZM121.159 23.5352L124.649 16.5566L128.138 23.5352H121.159Z" fill="white"/>
<path d="M110 0C109.191 0 108.535 0.655859 108.535 1.46484V4.49219C108.535 5.30117 109.191 5.95703 110 5.95703C110.809 5.95703 111.465 5.30117 111.465 4.49219V1.46484C111.465 0.655859 110.809 0 110 0Z" fill="white"/>
<path d="M103.785 6.45962L101.714 4.38804C101.142 3.81597 100.214 3.81597 99.6419 4.38804C99.0699 4.96011 99.0699 5.88755 99.6419 6.45962L101.714 8.5312C102.285 9.10327 103.213 9.10337 103.785 8.5312C104.357 7.95913 104.357 7.03169 103.785 6.45962Z" fill="white"/>
<path d="M120.358 4.38804C119.786 3.81597 118.859 3.81597 118.287 4.38804L116.215 6.45962C115.643 7.03169 115.643 7.95913 116.215 8.5312C116.787 9.10327 117.715 9.10337 118.287 8.5312L120.358 6.45962C120.93 5.88755 120.93 4.96011 120.358 4.38804Z" fill="white"/>
</svg>
