<svg width="219" height="138" viewBox="0 0 219 138" fill="none" xmlns="http://www.w3.org/2000/svg">
<path d="M5.46506 109.088C6.46773 108.949 7.16106 108.213 7.54506 106.88C7.93973 105.547 8.13706 103.595 8.13706 101.024V98.752H14.3131V110H13.1931V99.744H9.20906V101.04C9.20906 102.469 9.15573 103.691 9.04906 104.704C8.9424 105.707 8.75573 106.629 8.48906 107.472C8.2224 108.304 7.8384 108.944 7.33706 109.392C6.83573 109.829 6.21173 110.075 5.46506 110.128V109.088ZM17.1163 110V101.952H18.2043V105.504H19.8043C19.911 104.427 20.3483 103.536 21.1163 102.832C21.8843 102.117 22.7963 101.76 23.8523 101.76C24.9936 101.76 25.9643 102.16 26.7643 102.96C27.5643 103.76 27.9643 104.752 27.9643 105.936C27.9643 107.141 27.5643 108.155 26.7643 108.976C25.975 109.787 25.0096 110.192 23.8683 110.192C22.8123 110.192 21.9003 109.84 21.1323 109.136C20.375 108.421 19.9376 107.525 19.8203 106.448H18.2043V110H17.1163ZM20.8923 105.936C20.8923 106.875 21.1803 107.653 21.7563 108.272C22.3323 108.891 23.0363 109.2 23.8683 109.2C24.6896 109.2 25.3883 108.891 25.9643 108.272C26.5403 107.653 26.8283 106.875 26.8283 105.936C26.8283 105.029 26.5403 104.272 25.9643 103.664C25.3883 103.045 24.6896 102.736 23.8683 102.736C23.0363 102.736 22.3323 103.045 21.7563 103.664C21.1803 104.272 20.8923 105.029 20.8923 105.936ZM29.6393 105.44C29.6393 103.989 29.874 102.821 30.3433 101.936C30.8126 101.051 31.682 100.32 32.9513 99.744L35.9273 98.352L36.3273 99.264L33.2233 100.688C32.338 101.104 31.698 101.605 31.3033 102.192C30.9193 102.779 30.7006 103.515 30.6473 104.4H30.6793C31.3086 103.269 32.3113 102.704 33.6873 102.704C34.69 102.704 35.506 103.04 36.1353 103.712C36.7753 104.373 37.0953 105.275 37.0953 106.416C37.0953 107.525 36.754 108.432 36.0713 109.136C35.3886 109.84 34.5086 110.192 33.4313 110.192C32.162 110.192 31.2126 109.76 30.5833 108.896C29.954 108.032 29.6393 106.88 29.6393 105.44ZM30.8233 106.4C30.8233 107.264 31.0686 107.952 31.5593 108.464C32.05 108.976 32.6633 109.232 33.3993 109.232C34.1353 109.232 34.7486 108.981 35.2393 108.48C35.73 107.968 35.9753 107.285 35.9753 106.432C35.9753 105.568 35.73 104.885 35.2393 104.384C34.7593 103.872 34.1673 103.616 33.4633 103.616C32.6846 103.616 32.05 103.883 31.5593 104.416C31.0686 104.949 30.8233 105.611 30.8233 106.4ZM46.2021 110V101.952H47.2901V110H46.2021ZM39.2101 110V101.952H40.2981V105.024H42.0261C42.8367 105.024 43.5087 105.221 44.0421 105.616C44.5754 106.011 44.8421 106.651 44.8421 107.536C44.8421 108.293 44.6021 108.896 44.1221 109.344C43.6421 109.781 42.9327 110 41.9941 110H39.2101ZM40.2981 109.136H41.8981C43.1141 109.136 43.7221 108.597 43.7221 107.52C43.7221 107.008 43.5727 106.608 43.2741 106.32C42.9754 106.032 42.5221 105.888 41.9141 105.888H40.2981V109.136ZM49.3379 105.984C49.3379 104.704 49.7166 103.68 50.4739 102.912C51.2419 102.144 52.1913 101.76 53.3219 101.76C54.3886 101.76 55.2153 102.117 55.8019 102.832C56.3886 103.536 56.6819 104.416 56.6819 105.472C56.6819 105.6 56.6713 105.781 56.6499 106.016H50.4739C50.4953 107.008 50.8046 107.787 51.4019 108.352C51.9993 108.917 52.7299 109.2 53.5939 109.2C54.5219 109.2 55.3379 108.88 56.0419 108.24L56.5379 109.072C56.1646 109.413 55.7059 109.685 55.1619 109.888C54.6286 110.091 54.0953 110.192 53.5619 110.192C52.3566 110.192 51.3486 109.797 50.5379 109.008C49.7379 108.219 49.3379 107.211 49.3379 105.984ZM50.5219 105.152H55.5779C55.5459 104.352 55.3166 103.739 54.8899 103.312C54.4633 102.875 53.9299 102.656 53.2899 102.656C52.5966 102.656 51.9939 102.875 51.4819 103.312C50.9699 103.749 50.6499 104.363 50.5219 105.152ZM62.7257 113.2V101.952H63.7657V102.8L63.7177 103.424H63.7497C63.995 102.901 64.363 102.496 64.8537 102.208C65.355 101.909 65.9204 101.76 66.5497 101.76C67.627 101.76 68.4804 102.149 69.1097 102.928C69.739 103.696 70.0537 104.709 70.0537 105.968C70.0537 107.237 69.7177 108.261 69.0457 109.04C68.3737 109.808 67.5097 110.192 66.4537 110.192C65.8884 110.192 65.371 110.053 64.9017 109.776C64.4324 109.488 64.0644 109.093 63.7977 108.592H63.7657C63.7977 108.784 63.8137 109.019 63.8137 109.296V113.2H62.7257ZM63.7817 106C63.7817 106.864 64.011 107.616 64.4697 108.256C64.939 108.896 65.563 109.216 66.3417 109.216C67.0777 109.216 67.6964 108.928 68.1977 108.352C68.699 107.765 68.9497 106.976 68.9497 105.984C68.9497 105.013 68.7097 104.235 68.2297 103.648C67.7604 103.051 67.147 102.752 66.3897 102.752C65.6537 102.752 65.035 103.024 64.5337 103.568C64.0324 104.112 63.7817 104.923 63.7817 106ZM71.4436 107.84C71.4436 105.973 73.0756 105.04 76.3396 105.04H76.8196V104.816C76.8196 103.429 76.1582 102.736 74.8356 102.736C74.0142 102.736 73.2516 102.992 72.5476 103.504L72.0516 102.672C72.3716 102.395 72.7929 102.176 73.3156 102.016C73.8382 101.845 74.3662 101.76 74.8996 101.76C75.8702 101.76 76.6116 102.027 77.1236 102.56C77.6462 103.083 77.9076 103.845 77.9076 104.848V110H76.8676V109.056L76.9156 108.384H76.8836C76.6596 108.896 76.3022 109.328 75.8116 109.68C75.3316 110.021 74.7822 110.192 74.1636 110.192C73.4276 110.192 72.7876 109.984 72.2436 109.568C71.7102 109.152 71.4436 108.576 71.4436 107.84ZM72.5476 107.744C72.5476 108.149 72.7076 108.507 73.0276 108.816C73.3476 109.125 73.7902 109.28 74.3556 109.28C75.0916 109.28 75.6836 108.971 76.1316 108.352C76.5902 107.733 76.8196 107.04 76.8196 106.272V105.904H76.3556C76.0142 105.904 75.7156 105.909 75.4596 105.92C75.2142 105.931 74.8889 105.973 74.4836 106.048C74.0889 106.112 73.7636 106.203 73.5076 106.32C73.2516 106.437 73.0276 106.619 72.8356 106.864C72.6436 107.109 72.5476 107.403 72.5476 107.744ZM79.5972 109.024L80.1732 108.272C80.8025 108.933 81.5225 109.264 82.3332 109.264C82.8665 109.264 83.3199 109.131 83.6932 108.864C84.0772 108.587 84.2692 108.197 84.2692 107.696C84.2692 106.747 83.6185 106.272 82.3172 106.272H81.3412V105.408H82.1892C82.7545 105.408 83.1919 105.296 83.5012 105.072C83.8212 104.837 83.9812 104.496 83.9812 104.048C83.9812 103.6 83.8319 103.264 83.5332 103.04C83.2345 102.805 82.8292 102.688 82.3172 102.688C81.6132 102.688 80.9572 102.928 80.3492 103.408L79.8692 102.64C80.5732 102.053 81.4425 101.76 82.4772 101.76C83.2559 101.76 83.8852 101.947 84.3652 102.32C84.8559 102.693 85.1012 103.227 85.1012 103.92C85.1012 104.827 84.6905 105.44 83.8692 105.76V105.792C84.3279 105.909 84.6959 106.133 84.9732 106.464C85.2505 106.795 85.3892 107.216 85.3892 107.728C85.3892 108.507 85.0959 109.115 84.5092 109.552C83.9332 109.979 83.2292 110.192 82.3972 110.192C81.3305 110.192 80.3972 109.803 79.5972 109.024ZM87.1404 110L87.7964 101.952H88.9484L91.3644 106.912L91.8604 108.048H91.8924C92.0631 107.632 92.2284 107.253 92.3884 106.912L94.8204 101.952H95.9564L96.6284 110H95.5564L95.1564 104.8V103.408H95.1244C95.0071 103.749 94.8364 104.139 94.6124 104.576L92.3724 109.072H91.3804L89.1564 104.608L88.6284 103.408H88.5964C88.6178 104.048 88.6178 104.512 88.5964 104.8L88.1964 110H87.1404ZM98.3692 105.984C98.3692 104.704 98.7479 103.68 99.5052 102.912C100.273 102.144 101.223 101.76 102.353 101.76C103.42 101.76 104.247 102.117 104.833 102.832C105.42 103.536 105.713 104.416 105.713 105.472C105.713 105.6 105.703 105.781 105.681 106.016H99.5052C99.5265 107.008 99.8359 107.787 100.433 108.352C101.031 108.917 101.761 109.2 102.625 109.2C103.553 109.2 104.369 108.88 105.073 108.24L105.569 109.072C105.196 109.413 104.737 109.685 104.193 109.888C103.66 110.091 103.127 110.192 102.593 110.192C101.388 110.192 100.38 109.797 99.5692 109.008C98.7692 108.219 98.3692 107.211 98.3692 105.984ZM99.5532 105.152H104.609C104.577 104.352 104.348 103.739 103.921 103.312C103.495 102.875 102.961 102.656 102.321 102.656C101.628 102.656 101.025 102.875 100.513 103.312C100.001 103.749 99.6812 104.363 99.5532 105.152ZM107.757 113.2V101.952H108.797V102.8L108.749 103.424H108.781C109.026 102.901 109.394 102.496 109.885 102.208C110.386 101.909 110.952 101.76 111.581 101.76C112.658 101.76 113.512 102.149 114.141 102.928C114.77 103.696 115.085 104.709 115.085 105.968C115.085 107.237 114.749 108.261 114.077 109.04C113.405 109.808 112.541 110.192 111.485 110.192C110.92 110.192 110.402 110.053 109.933 109.776C109.464 109.488 109.096 109.093 108.829 108.592H108.797C108.829 108.784 108.845 109.019 108.845 109.296V113.2H107.757ZM108.813 106C108.813 106.864 109.042 107.616 109.501 108.256C109.97 108.896 110.594 109.216 111.373 109.216C112.109 109.216 112.728 108.928 113.229 108.352C113.73 107.765 113.981 106.976 113.981 105.984C113.981 105.013 113.741 104.235 113.261 103.648C112.792 103.051 112.178 102.752 111.421 102.752C110.685 102.752 110.066 103.024 109.565 103.568C109.064 104.112 108.813 104.923 108.813 106ZM124.171 110V101.952H125.259V110H124.171ZM117.179 110V101.952H118.267V105.024H119.995C120.805 105.024 121.477 105.221 122.011 105.616C122.544 106.011 122.811 106.651 122.811 107.536C122.811 108.293 122.571 108.896 122.091 109.344C121.611 109.781 120.901 110 119.963 110H117.179ZM118.267 109.136H119.867C121.083 109.136 121.691 108.597 121.691 107.52C121.691 107.008 121.541 106.608 121.243 106.32C120.944 106.032 120.491 105.888 119.883 105.888H118.267V109.136ZM131.851 110V101.952H132.907V107.232C132.907 107.968 132.891 108.368 132.859 108.432H132.891C132.933 108.357 133.211 107.957 133.723 107.232L137.675 101.952H138.715V110H137.643V104.704C137.643 104.565 137.643 104.405 137.643 104.224C137.653 104.043 137.664 103.888 137.675 103.76C137.685 103.621 137.691 103.547 137.691 103.536H137.659C137.659 103.557 137.611 103.632 137.515 103.76C137.429 103.888 137.312 104.048 137.163 104.24C137.024 104.432 136.917 104.587 136.843 104.704L132.891 110H131.851ZM144.776 105.936C144.776 104.731 145.176 103.749 145.976 102.992C146.786 102.235 147.832 101.829 149.112 101.776V98.8H150.168V101.776C151.448 101.829 152.488 102.235 153.288 102.992C154.098 103.749 154.504 104.731 154.504 105.936C154.504 107.163 154.098 108.165 153.288 108.944C152.488 109.712 151.448 110.123 150.168 110.176V113.2H149.112V110.176C147.832 110.123 146.786 109.712 145.976 108.944C145.176 108.165 144.776 107.163 144.776 105.936ZM150.168 109.232C151.138 109.179 151.917 108.859 152.504 108.272C153.101 107.675 153.4 106.896 153.4 105.936C153.4 104.987 153.101 104.229 152.504 103.664C151.917 103.099 151.138 102.789 150.168 102.736V109.232ZM145.88 105.936C145.88 106.896 146.173 107.675 146.76 108.272C147.357 108.859 148.141 109.179 149.112 109.232V102.736C148.141 102.789 147.357 103.099 146.76 103.664C146.173 104.229 145.88 104.987 145.88 105.936ZM156.025 105.936C156.025 104.752 156.436 103.76 157.257 102.96C158.079 102.16 159.081 101.76 160.265 101.76C161.449 101.76 162.452 102.16 163.273 102.96C164.105 103.76 164.521 104.752 164.521 105.936C164.521 107.141 164.105 108.155 163.273 108.976C162.452 109.787 161.449 110.192 160.265 110.192C159.081 110.192 158.079 109.787 157.257 108.976C156.436 108.155 156.025 107.141 156.025 105.936ZM157.145 105.936C157.145 106.875 157.444 107.653 158.041 108.272C158.649 108.891 159.391 109.2 160.265 109.2C161.14 109.2 161.881 108.891 162.489 108.272C163.097 107.653 163.401 106.875 163.401 105.936C163.401 105.029 163.097 104.272 162.489 103.664C161.881 103.045 161.14 102.736 160.265 102.736C159.391 102.736 158.649 103.045 158.041 103.664C157.444 104.272 157.145 105.029 157.145 105.936ZM166.554 113.2V101.952H167.594V102.8L167.546 103.424H167.578C167.823 102.901 168.191 102.496 168.682 102.208C169.183 101.909 169.748 101.76 170.378 101.76C171.455 101.76 172.308 102.149 172.938 102.928C173.567 103.696 173.882 104.709 173.882 105.968C173.882 107.237 173.546 108.261 172.874 109.04C172.202 109.808 171.338 110.192 170.282 110.192C169.716 110.192 169.199 110.053 168.73 109.776C168.26 109.488 167.892 109.093 167.626 108.592H167.594C167.626 108.784 167.642 109.019 167.642 109.296V113.2H166.554ZM167.61 106C167.61 106.864 167.839 107.616 168.298 108.256C168.767 108.896 169.391 109.216 170.17 109.216C170.906 109.216 171.524 108.928 172.026 108.352C172.527 107.765 172.778 106.976 172.778 105.984C172.778 105.013 172.538 104.235 172.058 103.648C171.588 103.051 170.975 102.752 170.218 102.752C169.482 102.752 168.863 103.024 168.362 103.568C167.86 104.112 167.61 104.923 167.61 106ZM175.672 110L176.328 101.952H177.48L179.896 106.912L180.392 108.048H180.424C180.594 107.632 180.76 107.253 180.92 106.912L183.352 101.952H184.488L185.16 110H184.088L183.688 104.8V103.408H183.656C183.538 103.749 183.368 104.139 183.144 104.576L180.904 109.072H179.912L177.688 104.608L177.16 103.408H177.128C177.149 104.048 177.149 104.512 177.128 104.8L176.728 110H175.672ZM186.74 107.84C186.74 105.973 188.372 105.04 191.636 105.04H192.116V104.816C192.116 103.429 191.455 102.736 190.132 102.736C189.311 102.736 188.548 102.992 187.844 103.504L187.348 102.672C187.668 102.395 188.09 102.176 188.612 102.016C189.135 101.845 189.663 101.76 190.196 101.76C191.167 101.76 191.908 102.027 192.42 102.56C192.943 103.083 193.204 103.845 193.204 104.848V110H192.164V109.056L192.212 108.384H192.18C191.956 108.896 191.599 109.328 191.108 109.68C190.628 110.021 190.079 110.192 189.46 110.192C188.724 110.192 188.084 109.984 187.54 109.568C187.007 109.152 186.74 108.576 186.74 107.84ZM187.844 107.744C187.844 108.149 188.004 108.507 188.324 108.816C188.644 109.125 189.087 109.28 189.652 109.28C190.388 109.28 190.98 108.971 191.428 108.352C191.887 107.733 192.116 107.04 192.116 106.272V105.904H191.652C191.311 105.904 191.012 105.909 190.756 105.92C190.511 105.931 190.186 105.973 189.78 106.048C189.386 106.112 189.06 106.203 188.804 106.32C188.548 106.437 188.324 106.619 188.132 106.864C187.94 107.109 187.844 107.403 187.844 107.744ZM198.894 109.024L199.47 108.272C200.099 108.933 200.819 109.264 201.63 109.264C202.163 109.264 202.617 109.131 202.99 108.864C203.374 108.587 203.566 108.197 203.566 107.696C203.566 106.747 202.915 106.272 201.614 106.272H200.638V105.408H201.486C202.051 105.408 202.489 105.296 202.798 105.072C203.118 104.837 203.278 104.496 203.278 104.048C203.278 103.6 203.129 103.264 202.83 103.04C202.531 102.805 202.126 102.688 201.614 102.688C200.91 102.688 200.254 102.928 199.646 103.408L199.166 102.64C199.87 102.053 200.739 101.76 201.774 101.76C202.553 101.76 203.182 101.947 203.662 102.32C204.153 102.693 204.398 103.227 204.398 103.92C204.398 104.827 203.987 105.44 203.166 105.76V105.792C203.625 105.909 203.993 106.133 204.27 106.464C204.547 106.795 204.686 107.216 204.686 107.728C204.686 108.507 204.393 109.115 203.806 109.552C203.23 109.979 202.526 110.192 201.694 110.192C200.627 110.192 199.694 109.803 198.894 109.024ZM206.037 107.84C206.037 105.973 207.669 105.04 210.933 105.04H211.413V104.816C211.413 103.429 210.752 102.736 209.429 102.736C208.608 102.736 207.845 102.992 207.141 103.504L206.645 102.672C206.965 102.395 207.387 102.176 207.909 102.016C208.432 101.845 208.96 101.76 209.493 101.76C210.464 101.76 211.205 102.027 211.717 102.56C212.24 103.083 212.501 103.845 212.501 104.848V110H211.461V109.056L211.509 108.384H211.477C211.253 108.896 210.896 109.328 210.405 109.68C209.925 110.021 209.376 110.192 208.757 110.192C208.021 110.192 207.381 109.984 206.837 109.568C206.304 109.152 206.037 108.576 206.037 107.84ZM207.141 107.744C207.141 108.149 207.301 108.507 207.621 108.816C207.941 109.125 208.384 109.28 208.949 109.28C209.685 109.28 210.277 108.971 210.725 108.352C211.184 107.733 211.413 107.04 211.413 106.272V105.904H210.949C210.608 105.904 210.309 105.909 210.053 105.92C209.808 105.931 209.483 105.973 209.077 106.048C208.683 106.112 208.357 106.203 208.101 106.32C207.845 106.437 207.621 106.619 207.429 106.864C207.237 107.109 207.141 107.403 207.141 107.744ZM90.5184 130.656L91.2064 129.808C91.5477 130.181 91.9744 130.496 92.4864 130.752C92.9984 130.997 93.5317 131.12 94.0864 131.12C94.7797 131.12 95.377 130.896 95.8784 130.448C96.3904 129.989 96.6464 129.408 96.6464 128.704C96.6464 127.947 96.369 127.36 95.8144 126.944C95.2704 126.517 94.609 126.304 93.8304 126.304H93.0464L92.7744 125.648L95.5904 122.352L96.1824 121.728V121.696C95.969 121.728 95.665 121.744 95.2704 121.744H91.0464V120.752H97.6224V121.488L94.2784 125.36C94.6624 125.381 95.0464 125.456 95.4304 125.584C95.8144 125.701 96.1877 125.883 96.5504 126.128C96.913 126.363 97.2064 126.704 97.4304 127.152C97.665 127.589 97.7824 128.096 97.7824 128.672C97.7824 129.643 97.4304 130.475 96.7264 131.168C96.0224 131.851 95.1424 132.192 94.0864 132.192C93.4357 132.192 92.7957 132.059 92.1664 131.792C91.537 131.515 90.9877 131.136 90.5184 130.656ZM105.055 131.072H109.183V124.88H106.367V125.36C106.367 127.845 105.929 129.749 105.055 131.072ZM102.895 131.072H103.887C104.825 129.845 105.295 127.909 105.295 125.264V123.952H110.271V131.072H111.407V133.92H110.367V132H103.935V133.92H102.895V131.072ZM113.171 132V123.952H114.259V127.392H118.963V123.952H120.051V132H118.963V128.352H114.259V132H113.171ZM121.824 132L123.76 129.232L124.128 128.752V128.72C123.616 128.613 123.178 128.357 122.816 127.952C122.453 127.536 122.272 127.019 122.272 126.4C122.272 125.611 122.528 125.008 123.04 124.592C123.562 124.165 124.256 123.952 125.12 123.952H127.952V132H126.864V128.912H125.2L123.088 132H121.824ZM125.248 128.064H126.864V124.784H125.328C124.037 124.784 123.392 125.323 123.392 126.4C123.392 126.923 123.562 127.333 123.904 127.632C124.256 127.92 124.704 128.064 125.248 128.064Z" fill="white"/>
<path d="M28.3837 83.282C28.9357 83.21 29.3857 83.012 29.7337 82.688C30.0937 82.364 30.3877 81.764 30.6157 80.888C30.8437 80.012 30.9577 78.836 30.9577 77.36V73.13H39.5977V86H36.4477V75.83H33.9457V77.396C33.9457 80.48 33.4837 82.712 32.5597 84.092C31.6357 85.46 30.2437 86.144 28.3837 86.144V83.282ZM41.8838 86V76.73H44.9978V80.078H46.2938C46.5578 78.986 47.1278 78.122 48.0038 77.486C48.8918 76.838 49.9418 76.514 51.1538 76.514C52.6178 76.514 53.8358 76.97 54.8078 77.882C55.7918 78.782 56.2838 79.952 56.2838 81.392C56.2838 82.82 55.7978 83.984 54.8258 84.884C53.8538 85.772 52.6358 86.216 51.1718 86.216C49.9238 86.216 48.8498 85.886 47.9498 85.226C47.0618 84.554 46.4978 83.66 46.2578 82.544H44.9978V86H41.8838ZM49.2098 81.392C49.2098 82.064 49.3958 82.604 49.7678 83.012C50.1398 83.42 50.6078 83.624 51.1718 83.624C51.7358 83.624 52.2038 83.42 52.5758 83.012C52.9478 82.604 53.1338 82.064 53.1338 81.392C53.1338 80.708 52.9478 80.156 52.5758 79.736C52.2038 79.316 51.7358 79.106 51.1718 79.106C50.6078 79.106 50.1398 79.316 49.7678 79.736C49.3958 80.156 49.2098 80.708 49.2098 81.392ZM57.4308 80.456C57.4308 78.584 57.8328 77.114 58.6368 76.046C59.4528 74.978 60.7728 74.132 62.5968 73.508L65.6028 72.5L66.4848 75.002L62.9928 76.118C62.5008 76.286 62.0988 76.442 61.7868 76.586C61.4868 76.73 61.1988 76.958 60.9228 77.27C60.6468 77.57 60.5028 77.93 60.4908 78.35H60.5268C61.2228 77.762 62.1288 77.468 63.2448 77.468C64.4688 77.468 65.4408 77.864 66.1608 78.656C66.8808 79.436 67.2408 80.456 67.2408 81.716C67.2408 83.024 66.8028 84.104 65.9268 84.956C65.0508 85.796 63.8928 86.216 62.4528 86.216C60.8208 86.216 59.5728 85.694 58.7088 84.65C57.8568 83.606 57.4308 82.208 57.4308 80.456ZM60.5268 81.77C60.5268 82.346 60.7008 82.808 61.0488 83.156C61.3968 83.504 61.8228 83.678 62.3268 83.678C62.8308 83.678 63.2568 83.504 63.6048 83.156C63.9528 82.808 64.1268 82.346 64.1268 81.77C64.1268 81.182 63.9528 80.708 63.6048 80.348C63.2568 79.988 62.8308 79.808 62.3268 79.808C61.8228 79.808 61.3968 79.988 61.0488 80.348C60.7008 80.708 60.5268 81.182 60.5268 81.77ZM68.2003 83.39C68.2003 82.802 68.3623 82.292 68.6863 81.86C69.0103 81.428 69.4363 81.098 69.9643 80.87C70.5043 80.642 71.0623 80.48 71.6383 80.384C72.2143 80.276 72.8143 80.222 73.4383 80.222H73.7083V80.06C73.7083 79.376 73.2703 79.034 72.3943 79.034C71.5783 79.034 70.7263 79.328 69.8383 79.916L68.7583 77.72C69.1783 77.396 69.7543 77.114 70.4863 76.874C71.2303 76.634 71.9623 76.514 72.6823 76.514C73.9663 76.514 74.9743 76.85 75.7063 77.522C76.4503 78.194 76.8223 79.118 76.8223 80.294V86H73.9783V85.442L74.0143 84.866H73.9783C73.6783 85.286 73.2763 85.616 72.7723 85.856C72.2803 86.096 71.7643 86.216 71.2243 86.216C70.3363 86.216 69.6103 85.946 69.0463 85.406C68.4823 84.866 68.2003 84.194 68.2003 83.39ZM71.2783 83.102C71.2783 83.33 71.3563 83.522 71.5123 83.678C71.6683 83.822 71.8843 83.894 72.1603 83.894C72.5923 83.894 72.9643 83.72 73.2763 83.372C73.5883 83.024 73.7443 82.652 73.7443 82.256V82.004H73.4563C72.8803 82.004 72.3703 82.094 71.9263 82.274C71.4943 82.442 71.2783 82.718 71.2783 83.102ZM77.9159 86L79.7879 83.192L80.2199 82.634V82.616C79.7159 82.364 79.3079 81.992 78.9959 81.5C78.6959 80.996 78.5459 80.45 78.5459 79.862C78.5459 78.89 78.8459 78.128 79.4459 77.576C80.0459 77.012 80.8619 76.73 81.8939 76.73H86.7539V86H83.6399V83.174H82.9919L81.2099 86H77.9159ZM82.9019 81.104H83.6399V78.656H82.8839C82.0559 78.656 81.6419 79.052 81.6419 79.844C81.6419 80.684 82.0619 81.104 82.9019 81.104ZM92.813 81.356C92.813 80.036 93.275 78.902 94.199 77.954C95.135 76.994 96.395 76.514 97.979 76.514C98.675 76.514 99.353 76.634 100.013 76.874C100.685 77.102 101.237 77.45 101.669 77.918L100.355 80.006C99.731 79.406 99.005 79.106 98.177 79.106C97.481 79.106 96.935 79.328 96.539 79.772C96.155 80.204 95.963 80.72 95.963 81.32C95.963 81.932 96.167 82.472 96.575 82.94C96.983 83.396 97.553 83.624 98.285 83.624C99.113 83.624 99.959 83.252 100.823 82.508L101.957 84.686C101.501 85.154 100.913 85.526 100.193 85.802C99.485 86.078 98.747 86.216 97.979 86.216C96.395 86.216 95.135 85.742 94.199 84.794C93.275 83.846 92.813 82.7 92.813 81.356ZM102.583 86.09V83.372C102.775 83.348 102.943 83.312 103.087 83.264C103.231 83.204 103.387 83.102 103.555 82.958C103.723 82.802 103.855 82.598 103.951 82.346C104.059 82.094 104.149 81.746 104.221 81.302C104.293 80.846 104.329 80.312 104.329 79.7V76.73H111.925V86H108.811V79.196H107.263V79.718C107.263 81.758 106.909 83.33 106.201 84.434C105.493 85.538 104.287 86.09 102.583 86.09ZM114.997 84.884C113.989 83.984 113.485 82.82 113.485 81.392C113.485 79.964 113.989 78.794 114.997 77.882C116.005 76.97 117.247 76.514 118.723 76.514C120.211 76.514 121.459 76.97 122.467 77.882C123.487 78.782 123.997 79.952 123.997 81.392C123.997 82.82 123.493 83.984 122.485 84.884C121.477 85.772 120.229 86.216 118.741 86.216C117.253 86.216 116.005 85.772 114.997 84.884ZM116.635 81.392C116.635 82.064 116.839 82.604 117.247 83.012C117.655 83.42 118.153 83.624 118.741 83.624C119.329 83.624 119.827 83.42 120.235 83.012C120.643 82.604 120.847 82.064 120.847 81.392C120.847 80.708 120.643 80.156 120.235 79.736C119.827 79.316 119.329 79.106 118.741 79.106C118.153 79.106 117.655 79.316 117.247 79.736C116.839 80.156 116.635 80.708 116.635 81.392ZM124.374 86L126.984 81.212V81.176L124.572 76.73H127.776L129.486 80.024H130.314V76.73H133.212V80.024H134.058L135.768 76.73H138.972L136.56 81.176V81.212L139.17 86H135.804L134.148 82.634H133.212V86H130.314V82.634H129.396L127.74 86H124.374ZM140.339 86V76.73H143.453V80.006H146.315V76.73H149.429V86H146.315V82.616H143.453V86H140.339ZM152.509 84.884C151.501 83.984 150.997 82.82 150.997 81.392C150.997 79.964 151.501 78.794 152.509 77.882C153.517 76.97 154.759 76.514 156.235 76.514C157.723 76.514 158.971 76.97 159.979 77.882C160.999 78.782 161.509 79.952 161.509 81.392C161.509 82.82 161.005 83.984 159.997 84.884C158.989 85.772 157.741 86.216 156.253 86.216C154.765 86.216 153.517 85.772 152.509 84.884ZM154.147 81.392C154.147 82.064 154.351 82.604 154.759 83.012C155.167 83.42 155.665 83.624 156.253 83.624C156.841 83.624 157.339 83.42 157.747 83.012C158.155 82.604 158.359 82.064 158.359 81.392C158.359 80.708 158.155 80.156 157.747 79.736C157.339 79.316 156.841 79.106 156.253 79.106C155.665 79.106 155.167 79.316 154.759 79.736C154.351 80.156 154.147 80.708 154.147 81.392ZM162.545 81.356C162.545 80.036 163.007 78.902 163.931 77.954C164.867 76.994 166.127 76.514 167.711 76.514C168.407 76.514 169.085 76.634 169.745 76.874C170.417 77.102 170.969 77.45 171.401 77.918L170.087 80.006C169.463 79.406 168.737 79.106 167.909 79.106C167.213 79.106 166.667 79.328 166.271 79.772C165.887 80.204 165.695 80.72 165.695 81.32C165.695 81.932 165.899 82.472 166.307 82.94C166.715 83.396 167.285 83.624 168.017 83.624C168.845 83.624 169.691 83.252 170.555 82.508L171.689 84.686C171.233 85.154 170.645 85.526 169.925 85.802C169.217 86.078 168.479 86.216 167.711 86.216C166.127 86.216 164.867 85.742 163.931 84.794C163.007 83.846 162.545 82.7 162.545 81.356ZM175.033 86V79.34H172.225V76.73H180.973V79.34H178.147V86H175.033ZM182.28 86V76.73H185.394V79.628H186.906C188.154 79.628 189.078 79.916 189.678 80.492C190.278 81.068 190.578 81.848 190.578 82.832C190.578 83.816 190.278 84.59 189.678 85.154C189.078 85.718 188.154 86 186.906 86H182.28ZM185.394 83.966H186.33C186.69 83.966 186.966 83.858 187.158 83.642C187.362 83.426 187.464 83.15 187.464 82.814C187.464 82.478 187.362 82.202 187.158 81.986C186.954 81.758 186.66 81.644 186.276 81.644H185.394V83.966Z" fill="white"/>
<g clip-path="url(#clip0_20_102)">
<path d="M133.735 21.7296C133.29 21.2813 132.73 20.967 132.063 20.7868V13.284C132.063 9.24639 128.778 5.96143 124.741 5.96143H95.2554C91.2177 5.96143 87.9328 9.24629 87.9328 13.284V20.7868C87.266 20.967 86.7062 21.2812 86.2615 21.7296C84.9677 23.0335 84.9872 25.0407 85.0038 27.1657C85.0114 28.1253 85.0038 36.716 85.0038 36.716C85.0038 37.5248 85.6595 38.1806 86.4684 38.1806H87.9329V42.5741C87.9329 43.3829 88.5886 44.0387 89.3975 44.0387C90.2064 44.0387 90.862 43.383 90.862 42.5741V38.1806H129.135V42.5741C129.135 43.3829 129.79 44.0387 130.599 44.0387C131.408 44.0387 132.064 43.383 132.064 42.5741V38.1806H133.528C134.337 38.1806 134.993 37.5249 134.993 36.716C134.993 36.5518 134.991 27.9077 134.997 27.1657C135.013 25.0406 135.029 23.0335 133.735 21.7296ZM90.8619 13.284C90.8619 10.8614 92.8327 8.89043 95.2554 8.89043H124.741C127.163 8.89043 129.134 10.8613 129.134 13.284V20.6065H126.205V16.213C126.205 13.7904 124.234 11.8194 121.812 11.8194H112.927C111.803 11.8194 110.776 12.2445 109.998 12.9417C109.22 12.2444 108.193 11.8194 107.069 11.8194H98.1844C95.7618 11.8194 93.7909 13.7903 93.7909 16.213V20.6065H90.8619V13.284ZM123.276 16.213V20.6065H111.463V16.213C111.463 15.4055 112.12 14.7484 112.927 14.7484H121.812C122.619 14.7484 123.276 15.4055 123.276 16.213ZM108.534 16.213V20.6065H96.72V16.213C96.72 15.4055 97.3769 14.7484 98.1845 14.7484H107.069C107.877 14.7484 108.534 15.4055 108.534 16.213ZM132.063 35.2516H87.9328V32.3226H132.063V35.2516ZM132.067 27.1429C132.06 28.0727 132.065 27.858 132.063 29.3936H87.9328C87.9314 27.9393 87.9359 28.0459 87.9287 27.1429C87.9035 23.9121 88.0339 23.5355 89.3974 23.5355H130.599C130.965 23.5355 131.445 23.5802 131.656 23.7926C132.09 24.2306 132.078 25.7777 132.067 27.1429Z" fill="white"/>
</g>
<defs>
<clipPath id="clip0_20_102">
<rect width="50" height="50" fill="white" transform="translate(85)"/>
</clipPath>
</defs>
</svg>
