<svg width="219" height="138" viewBox="0 0 219 138" fill="none" xmlns="http://www.w3.org/2000/svg">
<path d="M21.8191 110V98.752H27.7231V99.744H22.9231V110H21.8191ZM27.5451 107.84C27.5451 105.973 29.1771 105.04 32.4411 105.04H32.9211V104.816C32.9211 103.429 32.2598 102.736 30.9371 102.736C30.1158 102.736 29.3531 102.992 28.6491 103.504L28.1531 102.672C28.4731 102.395 28.8945 102.176 29.4171 102.016C29.9398 101.845 30.4678 101.76 31.0011 101.76C31.9718 101.76 32.7131 102.027 33.2251 102.56C33.7478 103.083 34.0091 103.845 34.0091 104.848V110H32.9691V109.056L33.0171 108.384H32.9851C32.7611 108.896 32.4038 109.328 31.9131 109.68C31.4331 110.021 30.8838 110.192 30.2651 110.192C29.5291 110.192 28.8891 109.984 28.3451 109.568C27.8118 109.152 27.5451 108.576 27.5451 107.84ZM28.6491 107.744C28.6491 108.149 28.8091 108.507 29.1291 108.816C29.4491 109.125 29.8918 109.28 30.4571 109.28C31.1931 109.28 31.7851 108.971 32.2331 108.352C32.6918 107.733 32.9211 107.04 32.9211 106.272V105.904H32.4571C32.1158 105.904 31.8171 105.909 31.5611 105.92C31.3158 105.931 30.9905 105.973 30.5851 106.048C30.1905 106.112 29.8651 106.203 29.6091 106.32C29.3531 106.437 29.1291 106.619 28.9371 106.864C28.7451 107.109 28.6491 107.403 28.6491 107.744ZM36.5148 113.2V101.952H37.5548V102.8L37.5068 103.424H37.5388C37.7841 102.901 38.1521 102.496 38.6428 102.208C39.1441 101.909 39.7094 101.76 40.3388 101.76C41.4161 101.76 42.2694 102.149 42.8988 102.928C43.5281 103.696 43.8428 104.709 43.8428 105.968C43.8428 107.237 43.5068 108.261 42.8348 109.04C42.1628 109.808 41.2988 110.192 40.2428 110.192C39.6774 110.192 39.1601 110.053 38.6908 109.776C38.2214 109.488 37.8534 109.093 37.5868 108.592H37.5548C37.5868 108.784 37.6028 109.019 37.6028 109.296V113.2H36.5148ZM37.5707 106C37.5707 106.864 37.8001 107.616 38.2588 108.256C38.7281 108.896 39.3521 109.216 40.1308 109.216C40.8668 109.216 41.4854 108.928 41.9868 108.352C42.4881 107.765 42.7388 106.976 42.7388 105.984C42.7388 105.013 42.4988 104.235 42.0188 103.648C41.5494 103.051 40.9361 102.752 40.1788 102.752C39.4428 102.752 38.8241 103.024 38.3228 103.568C37.8214 104.112 37.5707 104.923 37.5707 106ZM45.2326 107.84C45.2326 105.973 46.8646 105.04 50.1286 105.04H50.6086V104.816C50.6086 103.429 49.9473 102.736 48.6246 102.736C47.8033 102.736 47.0406 102.992 46.3366 103.504L45.8406 102.672C46.1606 102.395 46.582 102.176 47.1046 102.016C47.6273 101.845 48.1553 101.76 48.6886 101.76C49.6593 101.76 50.4006 102.027 50.9126 102.56C51.4353 103.083 51.6966 103.845 51.6966 104.848V110H50.6566V109.056L50.7046 108.384H50.6726C50.4486 108.896 50.0913 109.328 49.6006 109.68C49.1206 110.021 48.5713 110.192 47.9526 110.192C47.2166 110.192 46.5766 109.984 46.0326 109.568C45.4993 109.152 45.2326 108.576 45.2326 107.84ZM46.3366 107.744C46.3366 108.149 46.4966 108.507 46.8166 108.816C47.1366 109.125 47.5793 109.28 48.1446 109.28C48.8806 109.28 49.4726 108.971 49.9206 108.352C50.3793 107.733 50.6086 107.04 50.6086 106.272V105.904H50.1446C49.8033 105.904 49.5046 105.909 49.2486 105.92C49.0033 105.931 48.678 105.973 48.2726 106.048C47.878 106.112 47.5526 106.203 47.2966 106.32C47.0406 106.437 46.8166 106.619 46.6246 106.864C46.4326 107.109 46.3366 107.403 46.3366 107.744ZM54.2023 110V101.952H55.2903V105.392H59.9943V101.952H61.0823V110H59.9943V106.352H55.2903V110H54.2023ZM65.671 110V102.912H62.743V101.952H69.703V102.912H66.759V110H65.671ZM71.3741 110V101.952H72.4301V107.232C72.4301 107.968 72.4141 108.368 72.3821 108.432H72.4141C72.4568 108.357 72.7341 107.957 73.2461 107.232L77.1981 101.952H78.2381V110H77.1661V104.704C77.1661 104.565 77.1661 104.405 77.1661 104.224C77.1768 104.043 77.1875 103.888 77.1981 103.76C77.2088 103.621 77.2141 103.547 77.2141 103.536H77.1821C77.1821 103.557 77.1341 103.632 77.0381 103.76C76.9528 103.888 76.8355 104.048 76.6861 104.24C76.5475 104.432 76.4408 104.587 76.3661 104.704L72.4141 110H71.3741ZM80.0113 110L81.9473 107.232L82.3153 106.752V106.72C81.8033 106.613 81.3659 106.357 81.0033 105.952C80.6406 105.536 80.4593 105.019 80.4593 104.4C80.4593 103.611 80.7153 103.008 81.2273 102.592C81.7499 102.165 82.4433 101.952 83.3073 101.952H86.1393V110H85.0513V106.912H83.3873L81.2753 110H80.0113ZM83.4353 106.064H85.0513V102.784H83.5153C82.2246 102.784 81.5793 103.323 81.5793 104.4C81.5793 104.923 81.7499 105.333 82.0913 105.632C82.4433 105.92 82.8913 106.064 83.4353 106.064ZM93.7891 109.072H97.9171V102.88H95.1011V103.36C95.1011 105.845 94.6638 107.749 93.7891 109.072ZM91.6291 109.072H92.6211C93.5598 107.845 94.0291 105.909 94.0291 103.264V101.952H99.0051V109.072H100.141V111.92H99.1011V110H92.6691V111.92H91.6291V109.072ZM101.268 105.936C101.268 104.752 101.678 103.76 102.5 102.96C103.321 102.16 104.324 101.76 105.508 101.76C106.692 101.76 107.694 102.16 108.516 102.96C109.348 103.76 109.764 104.752 109.764 105.936C109.764 107.141 109.348 108.155 108.516 108.976C107.694 109.787 106.692 110.192 105.508 110.192C104.324 110.192 103.321 109.787 102.5 108.976C101.678 108.155 101.268 107.141 101.268 105.936ZM102.388 105.936C102.388 106.875 102.686 107.653 103.284 108.272C103.892 108.891 104.633 109.2 105.508 109.2C106.382 109.2 107.124 108.891 107.732 108.272C108.34 107.653 108.644 106.875 108.644 105.936C108.644 105.029 108.34 104.272 107.732 103.664C107.124 103.045 106.382 102.736 105.508 102.736C104.633 102.736 103.892 103.045 103.284 103.664C102.686 104.272 102.388 105.029 102.388 105.936ZM115.412 110V109.008H117.94V100.752L117.956 100.128H117.924C117.849 100.277 117.663 100.501 117.364 100.8L116.164 101.984L115.46 101.28L118.004 98.752H119.028V109.008H121.508V110H115.412ZM122.991 106.832C122.991 106.405 123.066 106.005 123.215 105.632C123.364 105.248 123.556 104.923 123.791 104.656C124.026 104.389 124.228 104.187 124.399 104.048C124.57 103.909 124.735 103.787 124.895 103.68C123.988 103.083 123.535 102.336 123.535 101.44C123.535 100.64 123.834 99.9627 124.431 99.408C125.028 98.8427 125.866 98.56 126.943 98.56C127.978 98.56 128.81 98.832 129.439 99.376C130.068 99.9093 130.383 100.608 130.383 101.472C130.383 101.931 130.276 102.4 130.063 102.88C129.85 103.349 129.647 103.701 129.455 103.936C129.274 104.171 129.098 104.373 128.927 104.544C129.994 105.163 130.527 105.963 130.527 106.944C130.527 107.84 130.175 108.608 129.471 109.248C128.767 109.877 127.876 110.192 126.799 110.192C125.754 110.192 124.858 109.883 124.111 109.264C123.364 108.635 122.991 107.824 122.991 106.832ZM128.015 104.096C128.847 103.264 129.263 102.416 129.263 101.552C129.263 100.944 129.044 100.464 128.607 100.112C128.18 99.76 127.62 99.584 126.927 99.584C126.234 99.584 125.679 99.76 125.263 100.112C124.858 100.464 124.655 100.901 124.655 101.424C124.655 101.659 124.703 101.883 124.799 102.096C124.906 102.299 125.028 102.469 125.167 102.608C125.306 102.747 125.503 102.896 125.759 103.056C126.026 103.205 126.25 103.323 126.431 103.408C126.623 103.493 126.89 103.611 127.231 103.76C127.583 103.899 127.844 104.011 128.015 104.096ZM124.143 106.752C124.143 107.456 124.41 108.037 124.943 108.496C125.476 108.944 126.09 109.168 126.783 109.168C127.466 109.168 128.068 108.96 128.591 108.544C129.124 108.117 129.391 107.589 129.391 106.96C129.391 106.672 129.322 106.411 129.183 106.176C129.055 105.941 128.847 105.728 128.559 105.536C128.282 105.344 128.02 105.189 127.775 105.072C127.54 104.955 127.204 104.805 126.767 104.624C126.33 104.443 126.004 104.299 125.791 104.192C124.692 104.875 124.143 105.728 124.143 106.752ZM136.555 110L137.211 101.952H138.363L140.779 106.912L141.275 108.048H141.307C141.477 107.632 141.643 107.253 141.803 106.912L144.235 101.952H145.371L146.043 110H144.97L144.571 104.8V103.408H144.539C144.421 103.749 144.251 104.139 144.027 104.576L141.787 109.072H140.795L138.571 104.608L138.043 103.408H138.011C138.032 104.048 138.032 104.512 138.011 104.8L137.611 110H136.555ZM147.783 105.984C147.783 104.704 148.162 103.68 148.919 102.912C149.687 102.144 150.637 101.76 151.767 101.76C152.834 101.76 153.661 102.117 154.247 102.832C154.834 103.536 155.127 104.416 155.127 105.472C155.127 105.6 155.117 105.781 155.095 106.016H148.919C148.941 107.008 149.25 107.787 149.847 108.352C150.445 108.917 151.175 109.2 152.039 109.2C152.967 109.2 153.783 108.88 154.487 108.24L154.983 109.072C154.61 109.413 154.151 109.685 153.607 109.888C153.074 110.091 152.541 110.192 152.007 110.192C150.802 110.192 149.794 109.797 148.983 109.008C148.183 108.219 147.783 107.211 147.783 105.984ZM148.967 105.152H154.023C153.991 104.352 153.762 103.739 153.335 103.312C152.909 102.875 152.375 102.656 151.735 102.656C151.042 102.656 150.439 102.875 149.927 103.312C149.415 103.749 149.095 104.363 148.967 105.152ZM156.627 105.984C156.627 104.757 157.032 103.749 157.843 102.96C158.654 102.16 159.656 101.76 160.851 101.76C161.406 101.76 161.95 101.861 162.483 102.064C163.016 102.256 163.454 102.539 163.795 102.912L163.235 103.728C162.947 103.429 162.59 103.189 162.163 103.008C161.747 102.827 161.32 102.736 160.883 102.736C159.987 102.736 159.24 103.04 158.643 103.648C158.046 104.256 157.747 105.035 157.747 105.984C157.747 106.923 158.046 107.696 158.643 108.304C159.251 108.901 160.008 109.2 160.915 109.2C161.384 109.2 161.854 109.104 162.323 108.912C162.792 108.709 163.182 108.437 163.491 108.096L163.987 108.912C163.635 109.307 163.176 109.621 162.611 109.856C162.056 110.08 161.47 110.192 160.851 110.192C159.646 110.192 158.638 109.803 157.827 109.024C157.027 108.235 156.627 107.221 156.627 105.984ZM165.027 110L166.963 107.232L167.331 106.752V106.72C166.819 106.613 166.382 106.357 166.019 105.952C165.656 105.536 165.475 105.019 165.475 104.4C165.475 103.611 165.731 103.008 166.243 102.592C166.766 102.165 167.459 101.952 168.323 101.952H171.155V110H170.067V106.912H168.403L166.291 110H165.027ZM168.451 106.064H170.067V102.784H168.531C167.24 102.784 166.595 103.323 166.595 104.4C166.595 104.923 166.766 105.333 167.107 105.632C167.459 105.92 167.907 106.064 168.451 106.064ZM173.765 110V101.952H174.853V109.04H179.301V101.952H180.405V109.04H181.525V111.92H180.501V110H173.765ZM182.658 105.984C182.658 104.704 183.037 103.68 183.794 102.912C184.562 102.144 185.512 101.76 186.642 101.76C187.709 101.76 188.536 102.117 189.122 102.832C189.709 103.536 190.002 104.416 190.002 105.472C190.002 105.6 189.992 105.781 189.97 106.016H183.794C183.816 107.008 184.125 107.787 184.722 108.352C185.32 108.917 186.05 109.2 186.914 109.2C187.842 109.2 188.658 108.88 189.362 108.24L189.858 109.072C189.485 109.413 189.026 109.685 188.482 109.888C187.949 110.091 187.416 110.192 186.882 110.192C185.677 110.192 184.669 109.797 183.858 109.008C183.058 108.219 182.658 107.211 182.658 105.984ZM183.842 105.152H188.898C188.866 104.352 188.637 103.739 188.21 103.312C187.784 102.875 187.25 102.656 186.61 102.656C185.917 102.656 185.314 102.875 184.802 103.312C184.29 103.749 183.97 104.363 183.842 105.152ZM192.046 110V101.952H194.958C195.79 101.952 196.441 102.133 196.91 102.496C197.379 102.848 197.614 103.349 197.614 104C197.614 104.885 197.209 105.477 196.398 105.776V105.808C196.91 105.915 197.31 106.144 197.598 106.496C197.886 106.848 198.03 107.264 198.03 107.744C198.03 108.437 197.769 108.987 197.246 109.392C196.734 109.797 196.025 110 195.118 110H192.046ZM193.134 105.44H194.846C195.379 105.44 195.785 105.323 196.062 105.088C196.35 104.843 196.494 104.501 196.494 104.064C196.494 103.211 195.923 102.784 194.782 102.784H193.134V105.44ZM193.134 109.152H194.974C195.625 109.152 196.11 109.029 196.43 108.784C196.75 108.528 196.91 108.176 196.91 107.728C196.91 107.259 196.739 106.901 196.398 106.656C196.067 106.4 195.587 106.272 194.958 106.272H193.134V109.152ZM24.38 126.304C24.38 124.661 24.908 123.296 25.964 122.208C27.0307 121.109 28.3853 120.56 30.028 120.56C31.724 120.56 33.0787 121.045 34.092 122.016L33.5 122.832C33.0627 122.448 32.5347 122.149 31.916 121.936C31.2973 121.712 30.6787 121.6 30.06 121.6C28.716 121.6 27.6227 122.048 26.78 122.944C25.948 123.829 25.532 124.944 25.532 126.288C25.532 127.653 25.9533 128.805 26.796 129.744C27.6387 130.683 28.7427 131.152 30.108 131.152C31.516 131.152 32.7267 130.656 33.74 129.664L34.38 130.448C33.196 131.611 31.7613 132.192 30.076 132.192C28.3907 132.192 27.02 131.632 25.964 130.512C24.908 129.381 24.38 127.979 24.38 126.304ZM36.2023 135.2V123.952H37.2423V124.8L37.1943 125.424H37.2263C37.4716 124.901 37.8396 124.496 38.3303 124.208C38.8316 123.909 39.3969 123.76 40.0263 123.76C41.1036 123.76 41.9569 124.149 42.5863 124.928C43.2156 125.696 43.5303 126.709 43.5303 127.968C43.5303 129.237 43.1943 130.261 42.5223 131.04C41.8503 131.808 40.9863 132.192 39.9303 132.192C39.3649 132.192 38.8476 132.053 38.3783 131.776C37.9089 131.488 37.5409 131.093 37.2743 130.592H37.2423C37.2743 130.784 37.2903 131.019 37.2903 131.296V135.2H36.2023ZM37.2582 128C37.2582 128.864 37.4876 129.616 37.9463 130.256C38.4156 130.896 39.0396 131.216 39.8183 131.216C40.5543 131.216 41.1729 130.928 41.6743 130.352C42.1756 129.765 42.4263 128.976 42.4263 127.984C42.4263 127.013 42.1863 126.235 41.7063 125.648C41.2369 125.051 40.6236 124.752 39.8663 124.752C39.1303 124.752 38.5116 125.024 38.0103 125.568C37.5089 126.112 37.2582 126.923 37.2582 128ZM45.0801 127.936C45.0801 126.752 45.4908 125.76 46.3121 124.96C47.1335 124.16 48.1361 123.76 49.3201 123.76C50.5041 123.76 51.5068 124.16 52.3281 124.96C53.1601 125.76 53.5761 126.752 53.5761 127.936C53.5761 129.141 53.1601 130.155 52.3281 130.976C51.5068 131.787 50.5041 132.192 49.3201 132.192C48.1361 132.192 47.1335 131.787 46.3121 130.976C45.4908 130.155 45.0801 129.141 45.0801 127.936ZM46.2001 127.936C46.2001 128.875 46.4988 129.653 47.0961 130.272C47.7041 130.891 48.4455 131.2 49.3201 131.2C50.1948 131.2 50.9361 130.891 51.5441 130.272C52.1521 129.653 52.4561 128.875 52.4561 127.936C52.4561 127.029 52.1521 126.272 51.5441 125.664C50.9361 125.045 50.1948 124.736 49.3201 124.736C48.4455 124.736 47.7041 125.045 47.0961 125.664C46.4988 126.272 46.2001 127.029 46.2001 127.936ZM55.6085 132V123.952H56.6965V127.36H57.9765L60.3925 123.952H61.6725L58.8725 127.776V127.808L61.9925 132H60.6645L57.9925 128.32H56.6965V132H55.6085ZM66.9864 127.984C66.9864 126.757 67.3917 125.749 68.2024 124.96C69.013 124.16 70.0157 123.76 71.2104 123.76C71.765 123.76 72.309 123.861 72.8424 124.064C73.3757 124.256 73.813 124.539 74.1544 124.912L73.5944 125.728C73.3064 125.429 72.949 125.189 72.5224 125.008C72.1064 124.827 71.6797 124.736 71.2424 124.736C70.3464 124.736 69.5997 125.04 69.0024 125.648C68.405 126.256 68.1064 127.035 68.1064 127.984C68.1064 128.923 68.405 129.696 69.0024 130.304C69.6104 130.901 70.3677 131.2 71.2744 131.2C71.7437 131.2 72.213 131.104 72.6824 130.912C73.1517 130.709 73.541 130.437 73.8504 130.096L74.3464 130.912C73.9944 131.307 73.5357 131.621 72.9704 131.856C72.4157 132.08 71.829 132.192 71.2104 132.192C70.005 132.192 68.997 131.803 68.1864 131.024C67.3864 130.235 66.9864 129.221 66.9864 127.984ZM75.2263 132.064V131.088C75.8876 130.981 76.3729 130.549 76.6823 129.792C76.9916 129.024 77.1463 127.888 77.1463 126.384V123.952H82.0743V132H80.9863V124.896H78.2023V126.384C78.2023 128.283 77.9623 129.685 77.4823 130.592C77.0129 131.488 76.2609 131.979 75.2263 132.064ZM84.1106 134.016C84.4093 134.261 84.7293 134.384 85.0706 134.384C85.7106 134.384 86.2226 133.947 86.6066 133.072L87.0866 131.92L83.7426 123.952H84.9426L87.2946 129.824L87.5986 130.672H87.6306C87.7053 130.373 87.796 130.091 87.9026 129.824L90.2226 123.952H91.3906L87.4226 133.68C87.2093 134.203 86.9 134.613 86.4946 134.912C86.1 135.211 85.6413 135.36 85.1186 135.36C84.8733 135.36 84.628 135.317 84.3826 135.232C84.148 135.157 83.9773 135.083 83.8706 135.008L83.6946 134.88L84.1106 134.016ZM92.1325 132L94.8525 127.888V127.856L92.3885 123.952H93.5725L95.7485 127.408H97.0445V123.952H98.1005V127.408H99.3965L101.573 123.952H102.773L100.309 127.856V127.888L103.029 132H101.749L99.3965 128.368H98.1005V132H97.0445V128.368H95.7645L93.3965 132H92.1325ZM104.163 127.44C104.163 125.989 104.397 124.821 104.867 123.936C105.336 123.051 106.205 122.32 107.475 121.744L110.451 120.352L110.851 121.264L107.747 122.688C106.861 123.104 106.221 123.605 105.827 124.192C105.443 124.779 105.224 125.515 105.171 126.4H105.203C105.832 125.269 106.835 124.704 108.211 124.704C109.213 124.704 110.029 125.04 110.659 125.712C111.299 126.373 111.619 127.275 111.619 128.416C111.619 129.525 111.277 130.432 110.595 131.136C109.912 131.84 109.032 132.192 107.955 132.192C106.685 132.192 105.736 131.76 105.107 130.896C104.477 130.032 104.163 128.88 104.163 127.44ZM105.347 128.4C105.347 129.264 105.592 129.952 106.083 130.464C106.573 130.976 107.187 131.232 107.923 131.232C108.659 131.232 109.272 130.981 109.763 130.48C110.253 129.968 110.499 129.285 110.499 128.432C110.499 127.568 110.253 126.885 109.763 126.384C109.283 125.872 108.691 125.616 107.987 125.616C107.208 125.616 106.573 125.883 106.083 126.416C105.592 126.949 105.347 127.611 105.347 128.4ZM120.726 132V123.952H121.814V132H120.726ZM113.734 132V123.952H114.822V127.024H116.549C117.36 127.024 118.032 127.221 118.566 127.616C119.099 128.011 119.366 128.651 119.366 129.536C119.366 130.293 119.126 130.896 118.646 131.344C118.166 131.781 117.456 132 116.518 132H113.734ZM114.822 131.136H116.422C117.638 131.136 118.246 130.597 118.246 129.52C118.246 129.008 118.096 128.608 117.798 128.32C117.499 128.032 117.046 127.888 116.438 127.888H114.822V131.136ZM129.445 131.072H133.573V124.88H130.757V125.36C130.757 127.845 130.32 129.749 129.445 131.072ZM127.285 131.072H128.277C129.216 129.845 129.685 127.909 129.685 125.264V123.952H134.661V131.072H135.797V133.92H134.757V132H128.325V133.92H127.285V131.072ZM136.924 127.936C136.924 126.752 137.335 125.76 138.156 124.96C138.977 124.16 139.98 123.76 141.164 123.76C142.348 123.76 143.351 124.16 144.172 124.96C145.004 125.76 145.42 126.752 145.42 127.936C145.42 129.141 145.004 130.155 144.172 130.976C143.351 131.787 142.348 132.192 141.164 132.192C139.98 132.192 138.977 131.787 138.156 130.976C137.335 130.155 136.924 129.141 136.924 127.936ZM138.044 127.936C138.044 128.875 138.343 129.653 138.94 130.272C139.548 130.891 140.289 131.2 141.164 131.2C142.039 131.2 142.78 130.891 143.388 130.272C143.996 129.653 144.3 128.875 144.3 127.936C144.3 127.029 143.996 126.272 143.388 125.664C142.78 125.045 142.039 124.736 141.164 124.736C140.289 124.736 139.548 125.045 138.94 125.664C138.343 126.272 138.044 127.029 138.044 127.936ZM151.068 132V131.008H153.596V122.752L153.612 122.128H153.58C153.506 122.277 153.319 122.501 153.02 122.8L151.82 123.984L151.116 123.28L153.66 120.752H154.684V131.008H157.164V132H151.068ZM158.567 130.608L159.287 129.824C159.884 130.688 160.727 131.12 161.815 131.12C162.604 131.12 163.266 130.875 163.799 130.384C164.343 129.883 164.615 129.253 164.615 128.496C164.615 127.728 164.343 127.093 163.799 126.592C163.255 126.091 162.578 125.84 161.767 125.84C161.01 125.84 160.327 126.048 159.719 126.464L159.015 126.208L159.623 120.752H165.063V121.744H160.599L160.263 124.624L160.167 125.264H160.199C160.658 124.976 161.223 124.832 161.895 124.832C163.004 124.832 163.927 125.189 164.663 125.904C165.399 126.608 165.767 127.472 165.767 128.496C165.767 129.531 165.388 130.405 164.631 131.12C163.884 131.835 162.962 132.192 161.863 132.192C161.212 132.192 160.594 132.053 160.007 131.776C159.42 131.499 158.94 131.109 158.567 130.608ZM170.898 132.064V131.088C171.559 130.981 172.045 130.549 172.354 129.792C172.663 129.024 172.818 127.888 172.818 126.384V123.952H177.746V132H176.658V124.896H173.874V126.384C173.874 128.283 173.634 129.685 173.154 130.592C172.685 131.488 171.933 131.979 170.898 132.064ZM179.815 127.984C179.815 126.704 180.193 125.68 180.951 124.912C181.719 124.144 182.668 123.76 183.799 123.76C184.865 123.76 185.692 124.117 186.279 124.832C186.865 125.536 187.159 126.416 187.159 127.472C187.159 127.6 187.148 127.781 187.127 128.016H180.951C180.972 129.008 181.281 129.787 181.879 130.352C182.476 130.917 183.207 131.2 184.071 131.2C184.999 131.2 185.815 130.88 186.519 130.24L187.015 131.072C186.641 131.413 186.183 131.685 185.639 131.888C185.105 132.091 184.572 132.192 184.039 132.192C182.833 132.192 181.825 131.797 181.015 131.008C180.215 130.219 179.815 129.211 179.815 127.984ZM180.999 127.152H186.055C186.023 126.352 185.793 125.739 185.367 125.312C184.94 124.875 184.407 124.656 183.766 124.656C183.073 124.656 182.471 124.875 181.959 125.312C181.447 125.749 181.127 126.363 180.999 127.152ZM191.093 132V124.912H188.165V123.952H195.125V124.912H192.181V132H191.093Z" fill="white"/>
<path d="M70.4994 86V73.13H78.3834V75.83H73.6494V86H70.4994ZM77.3497 83.39C77.3497 82.802 77.5117 82.292 77.8357 81.86C78.1597 81.428 78.5857 81.098 79.1137 80.87C79.6537 80.642 80.2117 80.48 80.7877 80.384C81.3637 80.276 81.9637 80.222 82.5877 80.222H82.8577V80.06C82.8577 79.376 82.4197 79.034 81.5437 79.034C80.7277 79.034 79.8757 79.328 78.9877 79.916L77.9077 77.72C78.3277 77.396 78.9037 77.114 79.6357 76.874C80.3797 76.634 81.1117 76.514 81.8317 76.514C83.1157 76.514 84.1237 76.85 84.8557 77.522C85.5997 78.194 85.9717 79.118 85.9717 80.294V86H83.1277V85.442L83.1637 84.866H83.1277C82.8277 85.286 82.4257 85.616 81.9217 85.856C81.4297 86.096 80.9137 86.216 80.3737 86.216C79.4857 86.216 78.7597 85.946 78.1957 85.406C77.6317 84.866 77.3497 84.194 77.3497 83.39ZM80.4277 83.102C80.4277 83.33 80.5057 83.522 80.6617 83.678C80.8177 83.822 81.0337 83.894 81.3097 83.894C81.7417 83.894 82.1137 83.72 82.4257 83.372C82.7377 83.024 82.8937 82.652 82.8937 82.256V82.004H82.6057C82.0297 82.004 81.5197 82.094 81.0757 82.274C80.6437 82.442 80.4277 82.718 80.4277 83.102ZM87.9473 89.6V76.73H90.7553V77.198L90.7193 77.792H90.7553C91.3913 76.94 92.3273 76.514 93.5633 76.514C94.8233 76.514 95.8313 76.964 96.5873 77.864C97.3553 78.752 97.7393 79.922 97.7393 81.374C97.7393 82.826 97.3313 83.996 96.5153 84.884C95.6993 85.772 94.6673 86.216 93.4193 86.216C92.5313 86.216 91.7453 85.922 91.0613 85.334H91.0253C91.0493 85.55 91.0613 85.814 91.0613 86.126V89.6H87.9473ZM90.9713 81.428C90.9713 82.028 91.1273 82.55 91.4393 82.994C91.7633 83.426 92.2133 83.642 92.7893 83.642C93.3053 83.642 93.7373 83.444 94.0853 83.048C94.4333 82.652 94.6073 82.112 94.6073 81.428C94.6073 80.744 94.4393 80.192 94.1033 79.772C93.7673 79.352 93.3293 79.142 92.7893 79.142C92.2733 79.142 91.8413 79.334 91.4933 79.718C91.1453 80.102 90.9713 80.672 90.9713 81.428ZM98.6719 83.39C98.6719 82.802 98.8339 82.292 99.1579 81.86C99.4819 81.428 99.9079 81.098 100.436 80.87C100.976 80.642 101.534 80.48 102.11 80.384C102.686 80.276 103.286 80.222 103.91 80.222H104.18V80.06C104.18 79.376 103.742 79.034 102.866 79.034C102.05 79.034 101.198 79.328 100.31 79.916L99.2299 77.72C99.6499 77.396 100.226 77.114 100.958 76.874C101.702 76.634 102.434 76.514 103.154 76.514C104.438 76.514 105.446 76.85 106.178 77.522C106.922 78.194 107.294 79.118 107.294 80.294V86H104.45V85.442L104.486 84.866H104.45C104.15 85.286 103.748 85.616 103.244 85.856C102.752 86.096 102.236 86.216 101.696 86.216C100.808 86.216 100.082 85.946 99.5179 85.406C98.9539 84.866 98.6719 84.194 98.6719 83.39ZM101.75 83.102C101.75 83.33 101.828 83.522 101.984 83.678C102.14 83.822 102.356 83.894 102.632 83.894C103.064 83.894 103.436 83.72 103.748 83.372C104.06 83.024 104.216 82.652 104.216 82.256V82.004H103.928C103.352 82.004 102.842 82.094 102.398 82.274C101.966 82.442 101.75 82.718 101.75 83.102ZM109.27 86V76.73H112.384V80.006H115.246V76.73H118.36V86H115.246V82.616H112.384V86H109.27ZM122.483 86V79.34H119.675V76.73H128.423V79.34H125.597V86H122.483ZM129.731 86V76.73H132.665V80.816C132.665 81.116 132.653 81.422 132.629 81.734H132.665C132.737 81.554 132.905 81.248 133.169 80.816L135.743 76.73H138.767V86H135.833V81.95C135.833 81.566 135.845 81.254 135.869 81.014H135.833C135.797 81.11 135.629 81.416 135.329 81.932L132.755 86H129.731ZM139.975 86L141.847 83.192L142.279 82.634V82.616C141.775 82.364 141.367 81.992 141.055 81.5C140.755 80.996 140.605 80.45 140.605 79.862C140.605 78.89 140.905 78.128 141.505 77.576C142.105 77.012 142.921 76.73 143.953 76.73H148.813V86H145.699V83.174H145.051L143.269 86H139.975ZM144.961 81.104H145.699V78.656H144.943C144.115 78.656 143.701 79.052 143.701 79.844C143.701 80.684 144.121 81.104 144.961 81.104Z" fill="white"/>
<g clip-path="url(#clip0_20_109)">
<path d="M131.239 13.5653L131.237 13.5264C131.216 13.0461 131.201 12.538 131.192 11.9727C131.152 9.21578 128.96 6.93536 126.203 6.78125C120.454 6.46043 116.007 4.5859 112.207 0.882219L112.175 0.85132C110.935 -0.285075 109.066 -0.285075 107.826 0.85132L107.794 0.882219C103.994 4.5859 99.5465 6.46043 93.7978 6.78163C91.0409 6.93536 88.849 9.21578 88.8082 11.973C88.7998 12.5346 88.7849 13.0427 88.7632 13.5264L88.7609 13.6168C88.6491 19.4788 88.5103 26.7744 90.9509 33.3963C92.2929 37.0378 94.3254 40.2032 96.9915 42.8052C100.028 45.7685 104.005 48.121 108.812 49.7972C108.969 49.8517 109.131 49.896 109.297 49.9292C109.53 49.9757 109.765 49.999 110 49.999C110.235 49.999 110.471 49.9757 110.704 49.9292C110.869 49.896 111.033 49.8513 111.19 49.7964C115.992 48.1172 119.965 45.7635 122.998 42.8007C125.663 40.1979 127.696 37.0317 129.039 33.3895C131.489 26.7477 131.35 19.4384 131.239 13.5653ZM126.286 32.3744C123.712 39.3537 118.457 44.1469 110.222 47.027C110.193 47.0369 110.161 47.0456 110.129 47.0521C110.044 47.0689 109.957 47.0689 109.871 47.0518C109.839 47.0453 109.808 47.0369 109.779 47.027C101.534 44.1522 96.2762 39.3617 93.704 32.382C91.4544 26.2781 91.5819 19.581 91.6944 13.6729L91.6951 13.6401C91.718 13.1323 91.7333 12.6006 91.7417 12.0161C91.76 10.792 92.735 9.77921 93.9615 9.71093C97.2146 9.52935 100.073 8.90069 102.699 7.78909C105.321 6.67902 107.65 5.11423 109.819 3.00547C109.929 2.9124 110.072 2.91201 110.182 3.00547C112.351 5.11423 114.68 6.67902 117.302 7.78909C119.928 8.90069 122.786 9.52935 126.04 9.71093C127.266 9.77921 128.241 10.792 128.259 12.0165C128.268 12.604 128.283 13.1358 128.306 13.6401C128.418 19.5551 128.542 26.2575 126.286 32.3744Z" fill="white"/>
<path d="M110 12.54C103.129 12.54 97.5391 18.1301 97.5391 25.0007C97.5391 31.8718 103.129 37.4618 110 37.4618C116.87 37.4618 122.46 31.8718 122.46 25.0007C122.46 18.1301 116.87 12.54 110 12.54ZM110 34.5276C104.747 34.5276 100.473 30.254 100.473 25.0007C100.473 19.7475 104.747 15.4739 110 15.4739C115.253 15.4739 119.526 19.7475 119.526 25.0007C119.526 30.254 115.253 34.5276 110 34.5276Z" fill="white"/>
<path d="M113.581 21.1323L107.793 26.9199L106.222 25.349C105.649 24.7761 104.72 24.7761 104.147 25.349C103.575 25.922 103.575 26.8509 104.147 27.4235L106.756 30.032C107.042 30.3185 107.418 30.4615 107.793 30.4615C108.168 30.4615 108.544 30.3185 108.83 30.032L115.655 23.2067C116.228 22.6337 116.228 21.7049 115.655 21.1323C115.082 20.5589 114.154 20.5589 113.581 21.1323Z" fill="white"/>
</g>
<defs>
<clipPath id="clip0_20_109">
<rect width="50" height="50" fill="white" transform="translate(85)"/>
</clipPath>
</defs>
</svg>
