<svg width="108" height="34" viewBox="0 0 108 34" fill="none" xmlns="http://www.w3.org/2000/svg">
<path d="M12.0017 30.7706L9.00878 27.7778C8.92657 27.6954 8.81665 27.6501 8.69945 27.6501C8.58218 27.6501 8.47232 27.6954 8.38998 27.7778L8.12787 28.0401C8.0454 28.1224 8 28.2323 8 28.3496C8 28.4668 8.0454 28.5766 8.12787 28.659L11.6912 32.2223C11.7738 32.305 11.8842 32.3503 12.0015 32.3499C12.1193 32.3503 12.2296 32.3051 12.3123 32.2223L15.8721 28.6623C15.9546 28.5799 16 28.4701 16 28.3528C16 28.2356 15.9546 28.1257 15.8721 28.0433L15.61 27.7812C15.4394 27.6106 15.1617 27.6106 14.9912 27.7812L12.0017 30.7706Z" fill="#29ABE2"/>
<g clip-path="url(#clip0_20_62)">
<path d="M5.42187 7.05945C5.42187 3.44295 8.36483 0.5 11.9813 0.5C15.5978 0.5 18.5408 3.44295 18.5408 7.05945V16.9406C18.5408 20.5571 15.5978 23.5 11.9813 23.5C8.36483 23.5 5.42187 20.5571 5.42187 16.9406V7.05945ZM11.9813 23.0601C15.356 23.0601 18.1008 20.3152 18.1008 16.9406V7.05945C18.1008 3.6848 15.356 0.939942 11.9813 0.939942C8.60667 0.939942 5.86182 3.6848 5.86182 7.05945V16.9406C5.86182 20.3152 8.60667 23.0601 11.9813 23.0601Z" fill="#29ABE2" stroke="#29ABE2"/>
<path d="M11.7617 5.49426C11.7617 5.3727 11.8601 5.27429 11.9817 5.27429C12.1033 5.27429 12.2017 5.3727 12.2017 5.49426V8.80811C12.2017 8.92949 12.1031 9.02808 11.9817 9.02808C11.8602 9.02808 11.7617 8.92957 11.7617 8.80811V5.49426Z" fill="#29ABE2" stroke="#29ABE2"/>
</g>
<path d="M31.204 18V8.06H39.254V18H37.448V9.614H33.01V18H31.204ZM41.9606 17.118C41.2046 16.4087 40.8266 15.5127 40.8266 14.43C40.8266 13.3473 41.2046 12.456 41.9606 11.756C42.7166 11.0467 43.6406 10.692 44.7326 10.692C45.8339 10.692 46.7626 11.0467 47.5186 11.756C48.2839 12.456 48.6666 13.3473 48.6666 14.43C48.6666 15.5127 48.2886 16.4087 47.5326 17.118C46.7766 17.818 45.8479 18.168 44.7466 18.168C43.6453 18.168 42.7166 17.818 41.9606 17.118ZM42.6326 14.43C42.6326 15.0833 42.8333 15.62 43.2346 16.04C43.6453 16.4507 44.1493 16.656 44.7466 16.656C45.3439 16.656 45.8479 16.4507 46.2586 16.04C46.6693 15.62 46.8746 15.0833 46.8746 14.43C46.8746 13.786 46.6646 13.254 46.2446 12.834C45.8339 12.414 45.3346 12.204 44.7466 12.204C44.1586 12.204 43.6593 12.414 43.2486 12.834C42.8379 13.254 42.6326 13.786 42.6326 14.43ZM51.8596 16.572H54.5056V12.288H52.7276V12.624C52.7276 14.2947 52.4382 15.6107 51.8596 16.572ZM49.1996 16.572H50.0816C50.7162 15.6387 51.0336 14.2293 51.0336 12.344V10.86H56.2836V16.572H57.3056V19.68H55.6956V18H50.8516V19.68H49.1996V16.572ZM58.5965 20.8V10.86H60.2205V11.392L60.1925 11.896H60.2205C60.4539 11.5133 60.7712 11.2193 61.1725 11.014C61.5832 10.7993 62.0312 10.692 62.5165 10.692C63.4779 10.692 64.2432 11.0373 64.8125 11.728C65.3912 12.4187 65.6805 13.3193 65.6805 14.43C65.6805 15.55 65.3725 16.4553 64.7565 17.146C64.1499 17.8273 63.3705 18.168 62.4185 18.168C61.5692 18.168 60.8832 17.832 60.3605 17.16H60.3325C60.3605 17.328 60.3745 17.5333 60.3745 17.776V20.8H58.5965ZM60.3185 14.472C60.3185 15.0693 60.4772 15.5873 60.7945 16.026C61.1119 16.4553 61.5459 16.67 62.0965 16.67C62.6099 16.67 63.0345 16.474 63.3705 16.082C63.7159 15.6807 63.8885 15.1393 63.8885 14.458C63.8885 13.786 63.7252 13.2447 63.3985 12.834C63.0719 12.4233 62.6472 12.218 62.1245 12.218C61.6112 12.218 61.1819 12.4093 60.8365 12.792C60.4912 13.1653 60.3185 13.7253 60.3185 14.472ZM67.8961 17.118C67.1401 16.4087 66.7621 15.5127 66.7621 14.43C66.7621 13.3473 67.1401 12.456 67.8961 11.756C68.6521 11.0467 69.5761 10.692 70.6681 10.692C71.7695 10.692 72.6981 11.0467 73.4541 11.756C74.2195 12.456 74.6021 13.3473 74.6021 14.43C74.6021 15.5127 74.2241 16.4087 73.4681 17.118C72.7121 17.818 71.7835 18.168 70.6821 18.168C69.5808 18.168 68.6521 17.818 67.8961 17.118ZM68.5681 14.43C68.5681 15.0833 68.7688 15.62 69.1701 16.04C69.5808 16.4507 70.0848 16.656 70.6821 16.656C71.2795 16.656 71.7835 16.4507 72.1941 16.04C72.6048 15.62 72.8101 15.0833 72.8101 14.43C72.8101 13.786 72.6001 13.254 72.1801 12.834C71.7695 12.414 71.2701 12.204 70.6821 12.204C70.0941 12.204 69.5948 12.414 69.1841 12.834C68.7735 13.254 68.5681 13.786 68.5681 14.43ZM75.7612 13.828C75.7612 12.4653 76.0272 11.378 76.5592 10.566C77.0912 9.754 77.9965 9.10067 79.2752 8.606L81.7392 7.64L82.2712 9.082L79.5552 10.118C78.9019 10.3887 78.3979 10.7107 78.0432 11.084C77.6979 11.4573 77.5065 11.9333 77.4692 12.512H77.4972C78.0479 11.8213 78.8319 11.476 79.8492 11.476C80.7639 11.476 81.5012 11.7747 82.0612 12.372C82.6212 12.9693 82.9012 13.7627 82.9012 14.752C82.9012 15.7507 82.5792 16.572 81.9352 17.216C81.2912 17.8507 80.4465 18.168 79.4012 18.168C78.2065 18.168 77.3012 17.776 76.6852 16.992C76.0692 16.1987 75.7612 15.144 75.7612 13.828ZM77.5672 14.766C77.5672 15.354 77.7352 15.8253 78.0712 16.18C78.4072 16.5253 78.8272 16.698 79.3312 16.698C79.8352 16.698 80.2552 16.5253 80.5912 16.18C80.9365 15.8347 81.1092 15.368 81.1092 14.78C81.1092 14.192 80.9412 13.7253 80.6052 13.38C80.2692 13.0253 79.8539 12.848 79.3592 12.848C78.8459 12.848 78.4165 13.03 78.0712 13.394C77.7352 13.7487 77.5672 14.206 77.5672 14.766ZM84.409 18V10.86H86.187V13.618H89.239V10.86H91.017V18H89.239V15.116H86.187V18H84.409ZM92.4926 14.43C92.4926 13.3287 92.8286 12.4327 93.5006 11.742C94.1819 11.042 95.0593 10.692 96.1326 10.692C97.1219 10.692 97.8966 11.014 98.4566 11.658C99.0166 12.2927 99.2966 13.1 99.2966 14.08C99.2966 14.2387 99.2779 14.4673 99.2406 14.766H94.3266C94.3826 15.3633 94.6113 15.83 95.0126 16.166C95.4139 16.4927 95.8993 16.656 96.4686 16.656C97.1779 16.656 97.8593 16.3947 98.5126 15.872L99.2126 17.146C98.8579 17.4633 98.4193 17.7153 97.8966 17.902C97.3833 18.0793 96.8653 18.168 96.3426 18.168C95.1946 18.168 94.2659 17.8087 93.5566 17.09C92.8473 16.362 92.4926 15.4753 92.4926 14.43ZM94.3686 13.548H97.5186C97.5093 13.0813 97.3693 12.7127 97.0986 12.442C96.8373 12.1713 96.5013 12.036 96.0906 12.036C95.6426 12.036 95.2646 12.176 94.9566 12.456C94.6486 12.7267 94.4526 13.0907 94.3686 13.548ZM100.34 14.43C100.34 13.3287 100.676 12.4327 101.348 11.742C102.03 11.042 102.907 10.692 103.98 10.692C104.97 10.692 105.744 11.014 106.304 11.658C106.864 12.2927 107.144 13.1 107.144 14.08C107.144 14.2387 107.126 14.4673 107.088 14.766H102.174C102.23 15.3633 102.459 15.83 102.86 16.166C103.262 16.4927 103.747 16.656 104.316 16.656C105.026 16.656 105.707 16.3947 106.36 15.872L107.06 17.146C106.706 17.4633 106.267 17.7153 105.744 17.902C105.231 18.0793 104.713 18.168 104.19 18.168C103.042 18.168 102.114 17.8087 101.404 17.09C100.695 16.362 100.34 15.4753 100.34 14.43ZM102.216 13.548H105.366C105.357 13.0813 105.217 12.7127 104.946 12.442C104.685 12.1713 104.349 12.036 103.938 12.036C103.49 12.036 103.112 12.176 102.804 12.456C102.496 12.7267 102.3 13.0907 102.216 13.548Z" fill="#29ABE2"/>
<defs>
<clipPath id="clip0_20_62">
<rect width="24" height="24" fill="white"/>
</clipPath>
</defs>
</svg>
